<?xml version="1.0" standalone="no"?>
<!DOCTYPE svg PUBLIC "-//W3C//DTD SVG 20010904//EN"
 "http://www.w3.org/TR/2001/REC-SVG-20010904/DTD/svg10.dtd">
<svg version="1.0" xmlns="http://www.w3.org/2000/svg"
 width="512.000000pt" height="512.000000pt" viewBox="0 0 512.000000 512.000000"
 preserveAspectRatio="xMidYMid meet">
<metadata>
Created by potrace 1.11, written by Peter Selinger 2001-2013
</metadata>
<g transform="translate(0.000000,512.000000) scale(0.100000,-0.100000)"
fill="#000000" stroke="none">
<path d="M2280 5079 c-268 -30 -584 -124 -835 -248 -277 -137 -478 -284 -697
-509 -236 -242 -407 -502 -533 -810 -66 -164 -145 -432 -125 -432 18 0 65 -60
91 -117 43 -92 90 -283 179 -724 72 -358 119 -550 139 -572 9 -9 44 106 65
218 29 151 75 501 136 1035 119 1049 156 1230 250 1230 110 0 155 -300 275
-1835 51 -649 82 -1023 105 -1245 21 -195 57 -460 64 -467 6 -6 14 36 31 158
38 276 77 759 150 1874 104 1590 146 2049 204 2197 26 68 99 69 127 3 55 -134
99 -574 184 -1865 59 -905 78 -1175 101 -1470 36 -475 83 -890 101 -890 4 0 8
5 8 10 0 6 7 54 15 108 36 245 64 536 135 1437 108 1372 149 1745 212 1913 20
54 40 72 81 72 88 0 126 -190 242 -1215 61 -529 94 -794 125 -975 21 -125 54
-260 69 -287 16 -30 68 162 141 525 81 410 103 510 134 617 50 171 87 238 142
261 29 12 39 12 67 0 62 -25 107 -101 198 -328 97 -243 163 -348 219 -348 33
0 58 18 172 126 115 108 177 139 278 139 55 0 97 -8 155 -27 124 -42 203 -58
295 -58 140 0 134 -6 126 119 -8 127 -30 282 -58 411 -50 235 -186 570 -318
780 -410 657 -1088 1091 -1850 1185 -134 16 -469 19 -600 4z"/>
<path d="M1831 4648 c-40 -234 -78 -703 -171 -2118 -112 -1707 -155 -2073
-243 -2095 -32 -8 -63 8 -81 44 -54 103 -98 491 -196 1740 -83 1051 -118 1415
-160 1652 -11 63 -20 117 -20 122 0 4 -4 7 -9 7 -26 0 -73 -332 -186 -1320
-60 -526 -108 -839 -150 -983 -48 -163 -131 -193 -197 -72 -37 69 -67 189
-153 615 -96 476 -145 665 -189 725 -25 34 -41 -129 -41 -415 0 -279 11 -378
65 -598 52 -213 106 -356 208 -557 119 -235 274 -448 467 -640 673 -674 1667
-913 2575 -620 392 127 732 338 1027 636 133 134 197 213 302 370 253 376 391
783 426 1257 l7 92 -118 0 c-125 0 -193 12 -329 57 -101 33 -175 35 -233 5
-23 -13 -82 -60 -130 -105 -139 -131 -187 -157 -260 -138 -85 23 -158 136
-277 429 -60 147 -110 243 -132 249 -17 6 -46 -55 -82 -172 -35 -115 -60 -228
-137 -619 -84 -428 -124 -567 -178 -621 -51 -50 -111 -20 -146 72 -59 158
-101 432 -205 1353 -69 611 -119 953 -145 999 -4 9 -13 -20 -23 -75 -52 -286
-84 -607 -172 -1729 -85 -1088 -120 -1430 -166 -1627 -30 -128 -80 -171 -133
-113 -71 77 -117 511 -221 2100 -83 1278 -116 1689 -156 1995 -11 85 -21 156
-23 158 -2 2 -9 -25 -15 -60z"/>
</g>
</svg>
