<?xml version="1.0" encoding="UTF-8" standalone="no"?>
<!-- Created with Inkscape (http://www.inkscape.org/) -->

<svg
   width="94.539474mm"
   height="39.204922mm"
   viewBox="0 0 334.98237 138.91507"
   id="svg2"
   version="1.1"
   inkscape:version="0.92.2 5c3e80d, 2017-08-06"
   sodipodi:docname="bankverbindung.svg"
   xmlns:inkscape="http://www.inkscape.org/namespaces/inkscape"
   xmlns:sodipodi="http://sodipodi.sourceforge.net/DTD/sodipodi-0.dtd"
   xmlns="http://www.w3.org/2000/svg"
   xmlns:svg="http://www.w3.org/2000/svg"
   xmlns:rdf="http://www.w3.org/1999/02/22-rdf-syntax-ns#"
   xmlns:cc="http://creativecommons.org/ns#"
   xmlns:dc="http://purl.org/dc/elements/1.1/">
  <defs
     id="defs4" />
  <sodipodi:namedview
     id="base"
     pagecolor="#ffffff"
     bordercolor="#666666"
     borderopacity="1.0"
     inkscape:pageopacity="0.0"
     inkscape:pageshadow="2"
     inkscape:zoom="2.2034091"
     inkscape:cx="234.4439"
     inkscape:cy="97.503578"
     inkscape:document-units="px"
     inkscape:current-layer="layer1"
     showgrid="false"
     fit-margin-top="5"
     fit-margin-left="10"
     fit-margin-right="10"
     fit-margin-bottom="5"
     inkscape:window-width="1920"
     inkscape:window-height="1025"
     inkscape:window-x="0"
     inkscape:window-y="31"
     inkscape:window-maximized="1"
     inkscape:pagecheckerboard="0" />
  <metadata
     id="metadata7">
    <rdf:RDF>
      <cc:Work
         rdf:about="">
        <dc:format>image/svg+xml</dc:format>
        <dc:type
           rdf:resource="http://purl.org/dc/dcmitype/StillImage" />
        <dc:title />
      </cc:Work>
    </rdf:RDF>
  </metadata>
  <g
     inkscape:label="Ebene 1"
     inkscape:groupmode="layer"
     id="layer1"
     transform="translate(-99.56693,-111.34366)">
    <g
       aria-label="PeP et al. e.V.
Dortmunder Volksbank
 
IBAN: DE22 4416 0014 6348 4161 00
BIC: GENODEM1DOR"
       id="text4147"
       style="font-weight:200;line-height:0%;letter-spacing:0px;word-spacing:0px;fill:#929292;stroke-width:1px">
      <path
         d="m 139.824,130.0502 h -2.754 v 12.312 h 0.846 v -4.896 h 1.854 c 2.646,0 4.536,-1.026 4.536,-3.762 0,-2.538 -1.656,-3.654 -4.482,-3.654 z m -0.036,6.696 h -1.872 v -5.958 h 1.908 c 2.286,0 3.582,0.756 3.582,2.934 0,2.322 -1.494,3.024 -3.618,3.024 z"
         style="font-size:18px;line-height:1.25;font-family:'Fira Sans';-inkscape-font-specification:'Fira Sans Light, '"
         id="path13" />
      <path
         d="m 153.12599,137.2862 c 0,-2.718 -1.188,-4.5 -3.582,-4.5 -2.25,0 -3.69,1.926 -3.69,4.95 0,3.024 1.494,4.824 3.906,4.824 1.242,0 2.142,-0.432 3.006,-1.152 l -0.414,-0.54 c -0.81,0.63 -1.494,0.954 -2.556,0.954 -1.692,0 -2.952,-1.134 -3.078,-3.798 h 6.372 c 0.018,-0.18 0.036,-0.45 0.036,-0.738 z m -0.81,0.072 h -5.598 c 0.09,-2.7 1.332,-3.87 2.862,-3.87 1.872,0 2.736,1.422 2.736,3.528 z"
         style="font-size:18px;line-height:1.25;font-family:'Fira Sans';-inkscape-font-specification:'Fira Sans Light, '"
         id="path15" />
      <path
         d="m 159.02999,130.0502 h -2.754 v 12.312 h 0.846 v -4.896 h 1.854 c 2.646,0 4.536,-1.026 4.536,-3.762 0,-2.538 -1.656,-3.654 -4.482,-3.654 z m -0.036,6.696 h -1.872 v -5.958 h 1.908 c 2.286,0 3.582,0.756 3.582,2.934 0,2.322 -1.494,3.024 -3.618,3.024 z"
         style="font-size:18px;line-height:1.25;font-family:'Fira Sans';-inkscape-font-specification:'Fira Sans Light, '"
         id="path17" />
      <path
         d="m 177.984,137.2862 c 0,-2.718 -1.188,-4.5 -3.582,-4.5 -2.25,0 -3.69,1.926 -3.69,4.95 0,3.024 1.494,4.824 3.906,4.824 1.242,0 2.142,-0.432 3.006,-1.152 l -0.414,-0.54 c -0.81,0.63 -1.494,0.954 -2.556,0.954 -1.692,0 -2.952,-1.134 -3.078,-3.798 h 6.372 c 0.018,-0.18 0.036,-0.45 0.036,-0.738 z m -0.81,0.072 h -5.598 c 0.09,-2.7 1.332,-3.87 2.862,-3.87 1.872,0 2.736,1.422 2.736,3.528 z"
         style="font-size:18px;line-height:1.25;font-family:'Fira Sans';-inkscape-font-specification:'Fira Sans Light, '"
         id="path19" />
      <path
         d="m 184.806,141.3902 c -0.468,0.27 -0.954,0.432 -1.512,0.432 -0.99,0 -1.458,-0.576 -1.458,-1.728 v -6.426 h 2.376 l 0.108,-0.702 h -2.484 v -2.376 l -0.828,0.09 v 2.286 h -1.566 v 0.702 h 1.566 v 6.48 c 0,1.602 0.846,2.412 2.196,2.412 0.756,0 1.386,-0.216 1.944,-0.576 z"
         style="font-size:18px;line-height:1.25;font-family:'Fira Sans';-inkscape-font-specification:'Fira Sans Light, '"
         id="path21" />
      <path
         d="m 197.81999,140.3282 v -4.626 c 0,-1.89 -0.918,-2.916 -3.006,-2.916 -0.954,0 -1.854,0.216 -2.862,0.612 l 0.234,0.666 c 0.918,-0.36 1.764,-0.558 2.556,-0.558 1.638,0 2.25,0.72 2.25,2.25 v 0.99 h -1.926 c -2.322,0 -3.816,1.062 -3.816,3.006 0,1.674 1.08,2.808 2.88,2.808 1.296,0 2.286,-0.558 2.97,-1.638 0.09,1.008 0.54,1.44 1.314,1.638 l 0.198,-0.594 c -0.522,-0.198 -0.792,-0.522 -0.792,-1.638 z m -3.582,1.53 c -1.314,0 -2.106,-0.774 -2.106,-2.124 0,-1.584 1.134,-2.34 3.06,-2.34 h 1.8 v 2.682 c -0.594,1.134 -1.458,1.782 -2.754,1.782 z"
         style="font-size:18px;line-height:1.25;font-family:'Fira Sans';-inkscape-font-specification:'Fira Sans Light, '"
         id="path23" />
      <path
         d="m 203.11199,142.5602 c 0.36,0 0.72,-0.108 0.99,-0.234 l -0.234,-0.63 c -0.198,0.072 -0.432,0.126 -0.666,0.126 -0.54,0 -0.81,-0.324 -0.81,-0.972 v -11.826 l -0.828,0.108 v 11.754 c 0,1.134 0.63,1.674 1.548,1.674 z"
         style="font-size:18px;line-height:1.25;font-family:'Fira Sans';-inkscape-font-specification:'Fira Sans Light, '"
         id="path25" />
      <path
         d="m 206.65798,141.1202 c -0.414,0 -0.72,0.324 -0.72,0.72 0,0.396 0.306,0.72 0.72,0.72 0.45,0 0.738,-0.324 0.738,-0.72 0,-0.396 -0.288,-0.72 -0.738,-0.72 z"
         style="font-size:18px;line-height:1.25;font-family:'Fira Sans';-inkscape-font-specification:'Fira Sans Light, '"
         id="path27" />
      <path
         d="m 222.01198,137.2862 c 0,-2.718 -1.188,-4.5 -3.582,-4.5 -2.25,0 -3.69,1.926 -3.69,4.95 0,3.024 1.494,4.824 3.906,4.824 1.242,0 2.142,-0.432 3.006,-1.152 l -0.414,-0.54 c -0.81,0.63 -1.494,0.954 -2.556,0.954 -1.692,0 -2.952,-1.134 -3.078,-3.798 h 6.372 c 0.018,-0.18 0.036,-0.45 0.036,-0.738 z m -0.81,0.072 h -5.598 c 0.09,-2.7 1.332,-3.87 2.862,-3.87 1.872,0 2.736,1.422 2.736,3.528 z"
         style="font-size:18px;line-height:1.25;font-family:'Fira Sans';-inkscape-font-specification:'Fira Sans Light, '"
         id="path29" />
      <path
         d="m 224.65799,141.1202 c -0.414,0 -0.72,0.324 -0.72,0.72 0,0.396 0.306,0.72 0.72,0.72 0.45,0 0.738,-0.324 0.738,-0.72 0,-0.396 -0.288,-0.72 -0.738,-0.72 z"
         style="font-size:18px;line-height:1.25;font-family:'Fira Sans';-inkscape-font-specification:'Fira Sans Light, '"
         id="path31" />
      <path
         d="m 234.93599,130.0502 h -0.9 l -3.618,11.448 -3.618,-11.448 h -0.918 l 4.032,12.312 h 0.99 z"
         style="font-size:18px;line-height:1.25;font-family:'Fira Sans';-inkscape-font-specification:'Fira Sans Light, '"
         id="path33" />
      <path
         d="m 236.14198,141.1202 c -0.414,0 -0.72,0.324 -0.72,0.72 0,0.396 0.306,0.72 0.72,0.72 0.45,0 0.738,-0.324 0.738,-0.72 0,-0.396 -0.288,-0.72 -0.738,-0.72 z"
         style="font-size:18px;line-height:1.25;font-family:'Fira Sans';-inkscape-font-specification:'Fira Sans Light, '"
         id="path35" />
      <path
         d="m 139.464,152.5502 h -2.394 v 12.312 h 2.52 c 2.484,0 5.454,-1.134 5.454,-6.264 0,-5.058 -2.826,-6.048 -5.58,-6.048 z m 0.054,0.738 c 2.232,0 4.626,0.684 4.626,5.31 0,4.536 -2.304,5.526 -4.5,5.526 h -1.728 v -10.836 z"
         style="font-size:18px;line-height:1.25;font-family:'Fira Sans';-inkscape-font-specification:'Fira Sans Light, '"
         id="path37" />
      <path
         d="m 151.416,155.2862 c -2.394,0 -3.906,1.836 -3.906,4.896 0,3.024 1.458,4.878 3.888,4.878 2.412,0 3.906,-1.854 3.906,-4.932 0,-3.096 -1.458,-4.842 -3.888,-4.842 z m 0,0.72 c 1.908,0 3.024,1.404 3.024,4.122 0,2.772 -1.17,4.212 -3.042,4.212 -1.89,0 -3.024,-1.458 -3.024,-4.158 0,-2.772 1.188,-4.176 3.042,-4.176 z"
         style="font-size:18px;line-height:1.25;font-family:'Fira Sans';-inkscape-font-specification:'Fira Sans Light, '"
         id="path39" />
      <path
         d="m 161.94599,155.2862 c -1.35,0 -2.196,0.774 -2.7,2.358 l -0.054,-2.178 h -0.72 v 9.396 h 0.828 v -5.868 c 0.522,-1.962 1.26,-2.934 2.61,-2.934 0.306,0 0.576,0.036 0.828,0.108 l 0.144,-0.774 c -0.216,-0.072 -0.522,-0.108 -0.936,-0.108 z"
         style="font-size:18px;line-height:1.25;font-family:'Fira Sans';-inkscape-font-specification:'Fira Sans Light, '"
         id="path41" />
      <path
         d="m 168.876,163.8902 c -0.468,0.27 -0.954,0.432 -1.512,0.432 -0.99,0 -1.458,-0.576 -1.458,-1.728 v -6.426 h 2.376 l 0.108,-0.702 h -2.484 v -2.376 l -0.828,0.09 v 2.286 h -1.566 v 0.702 h 1.566 v 6.48 c 0,1.602 0.846,2.412 2.196,2.412 0.756,0 1.386,-0.216 1.944,-0.576 z"
         style="font-size:18px;line-height:1.25;font-family:'Fira Sans';-inkscape-font-specification:'Fira Sans Light, '"
         id="path43" />
      <path
         d="m 180.23398,155.2862 c -1.242,0 -2.268,0.792 -3.006,1.926 -0.27,-1.206 -1.08,-1.926 -2.304,-1.926 -1.206,0 -2.214,0.738 -2.952,1.836 l -0.072,-1.656 h -0.72 v 9.396 h 0.828 v -6.858 c 0.738,-1.188 1.62,-2.034 2.79,-2.034 1.08,0 1.692,0.72 1.692,2.304 v 6.588 h 0.828 v -6.858 c 0.738,-1.188 1.62,-2.034 2.79,-2.034 1.062,0 1.692,0.72 1.692,2.304 v 6.588 h 0.828 v -6.696 c 0,-1.8 -0.882,-2.88 -2.394,-2.88 z"
         style="font-size:18px;line-height:1.25;font-family:'Fira Sans';-inkscape-font-specification:'Fira Sans Light, '"
         id="path45" />
      <path
         d="m 192.906,155.4662 h -0.828 v 6.858 c -0.684,1.17 -1.566,2.016 -2.88,2.016 -1.296,0 -1.998,-0.666 -1.998,-2.232 v -6.642 h -0.828 v 6.714 c 0,1.854 0.972,2.88 2.664,2.88 1.494,0 2.484,-0.828 3.114,-1.944 l 0.054,1.746 h 0.702 z"
         style="font-size:18px;line-height:1.25;font-family:'Fira Sans';-inkscape-font-specification:'Fira Sans Light, '"
         id="path47" />
      <path
         d="m 200.88,155.2862 c -1.386,0 -2.466,0.756 -3.258,1.854 l -0.072,-1.674 h -0.72 v 9.396 h 0.828 v -6.858 c 0.81,-1.188 1.746,-2.034 3.114,-2.034 1.224,0 1.854,0.702 1.854,2.304 v 6.588 h 0.828 v -6.696 c 0,-1.836 -0.864,-2.88 -2.574,-2.88 z"
         style="font-size:18px;line-height:1.25;font-family:'Fira Sans';-inkscape-font-specification:'Fira Sans Light, '"
         id="path49" />
      <path
         d="m 212.88599,151.5242 v 5.076 c -0.522,-0.666 -1.314,-1.314 -2.682,-1.314 -2.304,0 -3.672,2.016 -3.672,4.914 0,3.006 1.35,4.86 3.492,4.86 1.458,0 2.358,-0.774 2.88,-1.674 l 0.09,1.476 h 0.72 v -13.23 z m -2.754,12.816 c -1.674,0 -2.718,-1.476 -2.736,-4.14 -0.018,-2.7 1.188,-4.212 2.916,-4.212 1.224,0 2.016,0.666 2.574,1.494 v 4.986 c -0.648,1.188 -1.422,1.872 -2.754,1.872 z"
         style="font-size:18px;line-height:1.25;font-family:'Fira Sans';-inkscape-font-specification:'Fira Sans Light, '"
         id="path51" />
      <path
         d="m 224.15401,159.7862 c 0,-2.718 -1.188,-4.5 -3.582,-4.5 -2.25,0 -3.69,1.926 -3.69,4.95 0,3.024 1.494,4.824 3.906,4.824 1.242,0 2.142,-0.432 3.006,-1.152 l -0.414,-0.54 c -0.81,0.63 -1.494,0.954 -2.556,0.954 -1.692,0 -2.952,-1.134 -3.078,-3.798 h 6.372 c 0.018,-0.18 0.036,-0.45 0.036,-0.738 z m -0.81,0.072 h -5.598 c 0.09,-2.7 1.332,-3.87 2.862,-3.87 1.872,0 2.736,1.422 2.736,3.528 z"
         style="font-size:18px;line-height:1.25;font-family:'Fira Sans';-inkscape-font-specification:'Fira Sans Light, '"
         id="path53" />
      <path
         d="m 230.67001,155.2862 c -1.35,0 -2.196,0.774 -2.7,2.358 l -0.054,-2.178 h -0.72 v 9.396 h 0.828 v -5.868 c 0.522,-1.962 1.26,-2.934 2.61,-2.934 0.306,0 0.576,0.036 0.828,0.108 l 0.144,-0.774 c -0.216,-0.072 -0.522,-0.108 -0.936,-0.108 z"
         style="font-size:18px;line-height:1.25;font-family:'Fira Sans';-inkscape-font-specification:'Fira Sans Light, '"
         id="path55" />
      <path
         d="m 246.38402,152.5502 h -0.9 l -3.618,11.448 -3.618,-11.448 h -0.918 l 4.032,12.312 h 0.99 z"
         style="font-size:18px;line-height:1.25;font-family:'Fira Sans';-inkscape-font-specification:'Fira Sans Light, '"
         id="path57" />
      <path
         d="m 251.40601,155.2862 c -2.394,0 -3.906,1.836 -3.906,4.896 0,3.024 1.458,4.878 3.888,4.878 2.412,0 3.906,-1.854 3.906,-4.932 0,-3.096 -1.458,-4.842 -3.888,-4.842 z m 0,0.72 c 1.908,0 3.024,1.404 3.024,4.122 0,2.772 -1.17,4.212 -3.042,4.212 -1.89,0 -3.024,-1.458 -3.024,-4.158 0,-2.772 1.188,-4.176 3.042,-4.176 z"
         style="font-size:18px;line-height:1.25;font-family:'Fira Sans';-inkscape-font-specification:'Fira Sans Light, '"
         id="path59" />
      <path
         d="m 259.92,165.0602 c 0.36,0 0.72,-0.108 0.99,-0.234 l -0.234,-0.63 c -0.198,0.072 -0.432,0.126 -0.666,0.126 -0.54,0 -0.81,-0.324 -0.81,-0.972 v -11.826 l -0.828,0.108 v 11.754 c 0,1.134 0.63,1.674 1.548,1.674 z"
         style="font-size:18px;line-height:1.25;font-family:'Fira Sans';-inkscape-font-specification:'Fira Sans Light, '"
         id="path61" />
      <path
         d="m 264.492,151.5242 -0.828,0.108 v 13.23 h 0.828 z m 5.22,3.942 h -0.99 l -4.122,4.266 4.518,5.13 h 1.008 l -4.536,-5.166 z"
         style="font-size:18px;line-height:1.25;font-family:'Fira Sans';-inkscape-font-specification:'Fira Sans Light, '"
         id="path63" />
      <path
         d="m 274.428,155.2862 c -1.728,0 -3.042,0.99 -3.042,2.412 0,1.296 0.81,1.998 2.808,2.52 1.998,0.54 2.538,0.972 2.538,2.178 0,1.242 -1.008,1.944 -2.412,1.944 -1.224,0 -1.998,-0.378 -2.826,-1.026 l -0.468,0.54 c 0.81,0.684 1.782,1.206 3.294,1.206 1.872,0 3.276,-1.026 3.276,-2.682 0,-1.602 -0.9,-2.25 -2.988,-2.808 -1.728,-0.468 -2.358,-0.9 -2.358,-1.872 0,-1.062 0.9,-1.71 2.214,-1.71 0.972,0 1.656,0.288 2.466,0.882 l 0.432,-0.558 c -0.882,-0.684 -1.782,-1.026 -2.934,-1.026 z"
         style="font-size:18px;line-height:1.25;font-family:'Fira Sans';-inkscape-font-specification:'Fira Sans Light, '"
         id="path65" />
      <path
         d="m 284.166,155.2862 c -1.26,0 -2.196,0.63 -2.88,1.53 v -5.292 l -0.828,0.108 v 13.23 h 0.72 l 0.09,-1.242 c 0.594,0.792 1.53,1.44 2.772,1.44 2.268,0 3.528,-1.908 3.528,-4.95 0,-3.114 -1.242,-4.824 -3.402,-4.824 z m -0.252,9.054 c -1.134,0 -1.998,-0.648 -2.628,-1.548 v -5.112 c 0.702,-0.972 1.476,-1.692 2.754,-1.692 1.71,0 2.646,1.314 2.646,4.122 0,2.79 -1.008,4.23 -2.772,4.23 z"
         style="font-size:18px;line-height:1.25;font-family:'Fira Sans';-inkscape-font-specification:'Fira Sans Light, '"
         id="path67" />
      <path
         d="m 296.22602,162.8282 v -4.626 c 0,-1.89 -0.918,-2.916 -3.006,-2.916 -0.954,0 -1.854,0.216 -2.862,0.612 l 0.234,0.666 c 0.918,-0.36 1.764,-0.558 2.556,-0.558 1.638,0 2.25,0.72 2.25,2.25 v 0.99 h -1.926 c -2.322,0 -3.816,1.062 -3.816,3.006 0,1.674 1.08,2.808 2.88,2.808 1.296,0 2.286,-0.558 2.97,-1.638 0.09,1.008 0.54,1.44 1.314,1.638 l 0.198,-0.594 c -0.522,-0.198 -0.792,-0.522 -0.792,-1.638 z m -3.582,1.53 c -1.314,0 -2.106,-0.774 -2.106,-2.124 0,-1.584 1.134,-2.34 3.06,-2.34 h 1.8 v 2.682 c -0.594,1.134 -1.458,1.782 -2.754,1.782 z"
         style="font-size:18px;line-height:1.25;font-family:'Fira Sans';-inkscape-font-specification:'Fira Sans Light, '"
         id="path69" />
      <path
         d="m 304.2,155.2862 c -1.386,0 -2.466,0.756 -3.258,1.854 l -0.072,-1.674 h -0.72 v 9.396 h 0.828 v -6.858 c 0.81,-1.188 1.746,-2.034 3.114,-2.034 1.224,0 1.854,0.702 1.854,2.304 v 6.588 h 0.828 v -6.696 c 0,-1.836 -0.864,-2.88 -2.574,-2.88 z"
         style="font-size:18px;line-height:1.25;font-family:'Fira Sans';-inkscape-font-specification:'Fira Sans Light, '"
         id="path71" />
      <path
         d="m 311.436,151.5242 -0.828,0.108 v 13.23 h 0.828 z m 5.22,3.942 h -0.99 l -4.122,4.266 4.518,5.13 h 1.008 l -4.536,-5.166 z"
         style="font-size:18px;line-height:1.25;font-family:'Fira Sans';-inkscape-font-specification:'Fira Sans Light, '"
         id="path73" />
      <path
         d="m 137.916,197.5502 h -0.846 v 12.312 h 0.846 z"
         style="font-size:18px;line-height:1.25;font-family:'Fira Sans';-inkscape-font-specification:'Fira Sans Light, '"
         id="path75" />
      <path
         d="m 146.82601,203.3282 c 1.314,-0.234 2.25,-1.098 2.25,-2.718 0,-2.052 -1.602,-3.06 -4.338,-3.06 h -2.682 v 12.312 h 3.33 c 2.664,0 4.284,-1.134 4.284,-3.384 0,-2.124 -1.332,-3.006 -2.844,-3.15 z m -1.998,-5.04 c 2.142,0 3.366,0.684 3.366,2.376 0,1.494 -1.044,2.358 -2.592,2.358 h -2.7 v -4.734 z m 0.576,10.836 h -2.502 v -5.382 h 2.808 c 1.746,0 3.06,0.828 3.06,2.736 0,1.854 -1.296,2.646 -3.366,2.646 z"
         style="font-size:18px;line-height:1.25;font-family:'Fira Sans';-inkscape-font-specification:'Fira Sans Light, '"
         id="path77" />
      <path
         d="m 159.42602,209.8622 h 0.918 l -4.158,-12.312 h -1.08 l -4.158,12.312 h 0.864 l 1.134,-3.456 h 5.364 z m -6.228,-4.212 2.448,-7.398 2.412,7.398 z"
         style="font-size:18px;line-height:1.25;font-family:'Fira Sans';-inkscape-font-specification:'Fira Sans Light, '"
         id="path79" />
      <path
         d="m 170.67603,197.5502 h -0.81 v 7.758 c 0,1.62 0.072,3.006 0.108,3.6 l -6.102,-11.358 h -1.098 v 12.312 h 0.81 v -7.326 c 0,-2.178 -0.054,-3.24 -0.108,-4.032 l 6.102,11.358 h 1.098 z"
         style="font-size:18px;line-height:1.25;font-family:'Fira Sans';-inkscape-font-specification:'Fira Sans Light, '"
         id="path81" />
      <path
         d="m 174.49204,201.4382 c -0.414,0 -0.72,0.324 -0.72,0.738 0,0.378 0.306,0.702 0.72,0.702 0.45,0 0.738,-0.324 0.738,-0.702 0,-0.414 -0.288,-0.738 -0.738,-0.738 z m 0,7.182 c -0.414,0 -0.72,0.324 -0.72,0.72 0,0.396 0.306,0.72 0.72,0.72 0.45,0 0.738,-0.324 0.738,-0.72 0,-0.396 -0.288,-0.72 -0.738,-0.72 z"
         style="font-size:18px;line-height:1.25;font-family:'Fira Sans';-inkscape-font-specification:'Fira Sans Light, '"
         id="path83" />
      <path
         d="m 185.83204,197.5502 h -2.394 v 12.312 h 2.52 c 2.484,0 5.454,-1.134 5.454,-6.264 0,-5.058 -2.826,-6.048 -5.58,-6.048 z m 0.054,0.738 c 2.232,0 4.626,0.684 4.626,5.31 0,4.536 -2.304,5.526 -4.5,5.526 h -1.728 v -10.836 z"
         style="font-size:18px;line-height:1.25;font-family:'Fira Sans';-inkscape-font-specification:'Fira Sans Light, '"
         id="path85" />
      <path
         d="m 200.84404,197.5502 h -6.102 v 12.312 h 6.21 v -0.738 h -5.364 v -5.31 h 4.446 v -0.738 h -4.446 v -4.788 h 5.148 z"
         style="font-size:18px;line-height:1.25;font-family:'Fira Sans';-inkscape-font-specification:'Fira Sans Light, '"
         id="path87" />
      <path
         d="m 205.77603,197.7122 c -1.422,0 -2.448,0.54 -3.384,1.674 l 0.594,0.432 c 0.702,-0.864 1.548,-1.386 2.754,-1.386 1.44,0 2.358,0.936 2.358,2.43 0,2.16 -1.044,3.42 -5.562,8.28 v 0.72 h 6.624 l 0.126,-0.756 h -5.76 c 4.122,-4.41 5.436,-5.868 5.436,-8.298 0,-1.764 -1.188,-3.096 -3.186,-3.096 z"
         style="font-size:18px;line-height:1.25;font-family:'Fira Sans';-inkscape-font-specification:'Fira Sans Light, '"
         id="path89" />
      <path
         d="m 214.29003,197.7122 c -1.422,0 -2.448,0.54 -3.384,1.674 l 0.594,0.432 c 0.702,-0.864 1.548,-1.386 2.754,-1.386 1.44,0 2.358,0.936 2.358,2.43 0,2.16 -1.044,3.42 -5.562,8.28 v 0.72 h 6.624 l 0.126,-0.756 h -5.76 c 4.122,-4.41 5.436,-5.868 5.436,-8.298 0,-1.764 -1.188,-3.096 -3.186,-3.096 z"
         style="font-size:18px;line-height:1.25;font-family:'Fira Sans';-inkscape-font-specification:'Fira Sans Light, '"
         id="path91" />
      <path
         d="m 232.45203,205.9382 h -1.638 v -3.6 h -0.72 l -0.09,3.6 h -4.392 l 3.492,-7.938 -0.702,-0.288 -3.672,8.298 v 0.648 h 5.274 v 3.204 h 0.81 v -3.204 h 1.638 z"
         style="font-size:18px;line-height:1.25;font-family:'Fira Sans';-inkscape-font-specification:'Fira Sans Light, '"
         id="path93" />
      <path
         d="m 241.68604,205.9382 h -1.638 v -3.6 h -0.72 l -0.09,3.6 h -4.392 l 3.492,-7.938 -0.702,-0.288 -3.672,8.298 v 0.648 h 5.274 v 3.204 h 0.81 v -3.204 h 1.638 z"
         style="font-size:18px;line-height:1.25;font-family:'Fira Sans';-inkscape-font-specification:'Fira Sans Light, '"
         id="path95" />
      <path
         d="m 246.60005,197.9102 h -0.702 l -3.528,2.196 0.396,0.63 3.006,-1.89 v 11.016 h 0.828 z"
         style="font-size:18px;line-height:1.25;font-family:'Fira Sans';-inkscape-font-specification:'Fira Sans Light, '"
         id="path97" />
      <path
         d="m 254.10605,202.1042 c -1.386,0 -2.412,0.756 -3.15,1.854 0.09,-3.204 1.26,-5.544 3.366,-5.544 0.702,0 1.224,0.198 1.782,0.576 l 0.378,-0.594 c -0.594,-0.414 -1.242,-0.684 -2.142,-0.684 -2.61,0 -4.23,2.574 -4.23,6.84 0,3.042 0.972,5.508 3.708,5.508 1.962,0 3.42,-1.584 3.42,-4.212 0,-2.556 -1.422,-3.744 -3.132,-3.744 z m -0.288,7.236 c -2.016,0 -2.79,-1.746 -2.862,-4.446 0.702,-1.242 1.746,-2.07 3.06,-2.07 1.35,0 2.376,0.918 2.376,3.042 0,2.016 -0.882,3.474 -2.574,3.474 z"
         style="font-size:18px;line-height:1.25;font-family:'Fira Sans';-inkscape-font-specification:'Fira Sans Light, '"
         id="path99" />
      <path
         d="m 268.25407,197.7122 c -2.376,0 -3.672,2.088 -3.672,6.156 0,4.068 1.296,6.192 3.672,6.192 2.358,0 3.654,-2.088 3.654,-6.156 0,-4.104 -1.278,-6.192 -3.654,-6.192 z m 0,0.702 c 1.818,0 2.79,1.746 2.79,5.49 0,3.726 -0.99,5.436 -2.79,5.436 -1.818,0 -2.808,-1.728 -2.808,-5.472 0,-3.726 1.008,-5.454 2.808,-5.454 z"
         style="font-size:18px;line-height:1.25;font-family:'Fira Sans';-inkscape-font-specification:'Fira Sans Light, '"
         id="path101" />
      <path
         d="m 278.10008,197.7122 c -2.376,0 -3.672,2.088 -3.672,6.156 0,4.068 1.296,6.192 3.672,6.192 2.358,0 3.654,-2.088 3.654,-6.156 0,-4.104 -1.278,-6.192 -3.654,-6.192 z m 0,0.702 c 1.818,0 2.79,1.746 2.79,5.49 0,3.726 -0.99,5.436 -2.79,5.436 -1.818,0 -2.808,-1.728 -2.808,-5.472 0,-3.726 1.008,-5.454 2.808,-5.454 z"
         style="font-size:18px;line-height:1.25;font-family:'Fira Sans';-inkscape-font-specification:'Fira Sans Light, '"
         id="path103" />
      <path
         d="m 287.5501,197.9102 h -0.702 l -3.528,2.196 0.396,0.63 3.006,-1.89 v 11.016 h 0.828 z"
         style="font-size:18px;line-height:1.25;font-family:'Fira Sans';-inkscape-font-specification:'Fira Sans Light, '"
         id="path105" />
      <path
         d="m 298.36811,205.9382 h -1.638 v -3.6 h -0.72 l -0.09,3.6 h -4.392 l 3.492,-7.938 -0.702,-0.288 -3.672,8.298 v 0.648 h 5.274 v 3.204 h 0.81 v -3.204 h 1.638 z"
         style="font-size:18px;line-height:1.25;font-family:'Fira Sans';-inkscape-font-specification:'Fira Sans Light, '"
         id="path107" />
      <path
         d="m 309.40212,202.1042 c -1.386,0 -2.412,0.756 -3.15,1.854 0.09,-3.204 1.26,-5.544 3.366,-5.544 0.702,0 1.224,0.198 1.782,0.576 l 0.378,-0.594 c -0.594,-0.414 -1.242,-0.684 -2.142,-0.684 -2.61,0 -4.23,2.574 -4.23,6.84 0,3.042 0.972,5.508 3.708,5.508 1.962,0 3.42,-1.584 3.42,-4.212 0,-2.556 -1.422,-3.744 -3.132,-3.744 z m -0.288,7.236 c -2.016,0 -2.79,-1.746 -2.862,-4.446 0.702,-1.242 1.746,-2.07 3.06,-2.07 1.35,0 2.376,0.918 2.376,3.042 0,2.016 -0.882,3.474 -2.574,3.474 z"
         style="font-size:18px;line-height:1.25;font-family:'Fira Sans';-inkscape-font-specification:'Fira Sans Light, '"
         id="path109" />
      <path
         d="m 317.26813,197.7122 c -1.314,0 -2.304,0.45 -3.204,1.332 l 0.45,0.522 c 0.882,-0.81 1.692,-1.134 2.718,-1.134 1.458,0 2.412,0.864 2.412,2.286 0,1.728 -1.278,2.484 -2.556,2.484 h -0.576 l -0.108,0.684 h 0.756 c 1.674,0 2.79,0.774 2.79,2.646 0,1.656 -1.044,2.79 -2.88,2.79 -1.08,0 -1.944,-0.324 -2.808,-1.26 l -0.54,0.468 c 0.9,1.008 1.98,1.53 3.366,1.53 2.268,0 3.726,-1.476 3.726,-3.546 0,-1.926 -1.224,-2.97 -2.7,-3.024 1.314,-0.198 2.376,-1.152 2.376,-2.808 0,-1.692 -1.206,-2.97 -3.222,-2.97 z"
         style="font-size:18px;line-height:1.25;font-family:'Fira Sans';-inkscape-font-specification:'Fira Sans Light, '"
         id="path111" />
      <path
         d="m 330.40812,205.9382 h -1.638 v -3.6 h -0.72 l -0.09,3.6 h -4.392 l 3.492,-7.938 -0.702,-0.288 -3.672,8.298 v 0.648 h 5.274 v 3.204 h 0.81 v -3.204 h 1.638 z"
         style="font-size:18px;line-height:1.25;font-family:'Fira Sans';-inkscape-font-specification:'Fira Sans Light, '"
         id="path113" />
      <path
         d="m 336.96013,203.5622 c 1.494,-0.774 2.196,-1.602 2.196,-2.898 0,-1.962 -1.602,-2.952 -3.276,-2.952 -1.692,0 -3.258,1.062 -3.258,2.952 0,1.368 0.666,2.124 2.124,2.754 -1.71,0.63 -2.664,1.764 -2.664,3.384 0,1.926 1.458,3.258 3.762,3.258 2.25,0 3.816,-1.278 3.816,-3.276 0,-1.62 -0.864,-2.484 -2.7,-3.222 z m -3.51,-2.88 c 0,-1.476 1.062,-2.286 2.43,-2.286 1.404,0 2.43,0.81 2.43,2.304 0,1.134 -0.612,1.872 -1.998,2.61 l -0.666,-0.252 c -1.656,-0.63 -2.196,-1.224 -2.196,-2.376 z m 2.412,8.64 c -1.728,0 -2.916,-0.882 -2.916,-2.52 0,-1.512 0.738,-2.448 2.52,-3.114 l 0.648,0.252 c 1.89,0.72 2.682,1.332 2.682,2.844 0,1.656 -1.224,2.538 -2.934,2.538 z"
         style="font-size:18px;line-height:1.25;font-family:'Fira Sans';-inkscape-font-specification:'Fira Sans Light, '"
         id="path115" />
      <path
         d="m 354.34815,205.9382 h -1.638 v -3.6 h -0.72 l -0.09,3.6 h -4.392 l 3.492,-7.938 -0.702,-0.288 -3.672,8.298 v 0.648 h 5.274 v 3.204 h 0.81 v -3.204 h 1.638 z"
         style="font-size:18px;line-height:1.25;font-family:'Fira Sans';-inkscape-font-specification:'Fira Sans Light, '"
         id="path117" />
      <path
         d="m 359.26216,197.9102 h -0.702 l -3.528,2.196 0.396,0.63 3.006,-1.89 v 11.016 h 0.828 z"
         style="font-size:18px;line-height:1.25;font-family:'Fira Sans';-inkscape-font-specification:'Fira Sans Light, '"
         id="path119" />
      <path
         d="m 366.76816,202.1042 c -1.386,0 -2.412,0.756 -3.15,1.854 0.09,-3.204 1.26,-5.544 3.366,-5.544 0.702,0 1.224,0.198 1.782,0.576 l 0.378,-0.594 c -0.594,-0.414 -1.242,-0.684 -2.142,-0.684 -2.61,0 -4.23,2.574 -4.23,6.84 0,3.042 0.972,5.508 3.708,5.508 1.962,0 3.42,-1.584 3.42,-4.212 0,-2.556 -1.422,-3.744 -3.132,-3.744 z m -0.288,7.236 c -2.016,0 -2.79,-1.746 -2.862,-4.446 0.702,-1.242 1.746,-2.07 3.06,-2.07 1.35,0 2.376,0.918 2.376,3.042 0,2.016 -0.882,3.474 -2.574,3.474 z"
         style="font-size:18px;line-height:1.25;font-family:'Fira Sans';-inkscape-font-specification:'Fira Sans Light, '"
         id="path121" />
      <path
         d="m 375.17418,197.9102 h -0.702 l -3.528,2.196 0.396,0.63 3.006,-1.89 v 11.016 h 0.828 z"
         style="font-size:18px;line-height:1.25;font-family:'Fira Sans';-inkscape-font-specification:'Fira Sans Light, '"
         id="path123" />
      <path
         d="m 387.46819,197.7122 c -2.376,0 -3.672,2.088 -3.672,6.156 0,4.068 1.296,6.192 3.672,6.192 2.358,0 3.654,-2.088 3.654,-6.156 0,-4.104 -1.278,-6.192 -3.654,-6.192 z m 0,0.702 c 1.818,0 2.79,1.746 2.79,5.49 0,3.726 -0.99,5.436 -2.79,5.436 -1.818,0 -2.808,-1.728 -2.808,-5.472 0,-3.726 1.008,-5.454 2.808,-5.454 z"
         style="font-size:18px;line-height:1.25;font-family:'Fira Sans';-inkscape-font-specification:'Fira Sans Light, '"
         id="path125" />
      <path
         d="m 397.3142,197.7122 c -2.376,0 -3.672,2.088 -3.672,6.156 0,4.068 1.296,6.192 3.672,6.192 2.358,0 3.654,-2.088 3.654,-6.156 0,-4.104 -1.278,-6.192 -3.654,-6.192 z m 0,0.702 c 1.818,0 2.79,1.746 2.79,5.49 0,3.726 -0.99,5.436 -2.79,5.436 -1.818,0 -2.808,-1.728 -2.808,-5.472 0,-3.726 1.008,-5.454 2.808,-5.454 z"
         style="font-size:18px;line-height:1.25;font-family:'Fira Sans';-inkscape-font-specification:'Fira Sans Light, '"
         id="path127" />
      <path
         d="m 141.84,225.8282 c 1.314,-0.234 2.25,-1.098 2.25,-2.718 0,-2.052 -1.602,-3.06 -4.338,-3.06 h -2.682 v 12.312 h 3.33 c 2.664,0 4.284,-1.134 4.284,-3.384 0,-2.124 -1.332,-3.006 -2.844,-3.15 z m -1.998,-5.04 c 2.142,0 3.366,0.684 3.366,2.376 0,1.494 -1.044,2.358 -2.592,2.358 h -2.7 v -4.734 z m 0.576,10.836 h -2.502 v -5.382 h 2.808 c 1.746,0 3.06,0.828 3.06,2.736 0,1.854 -1.296,2.646 -3.366,2.646 z"
         style="font-size:18px;line-height:1.25;font-family:'Fira Sans';-inkscape-font-specification:'Fira Sans Light, '"
         id="path129" />
      <path
         d="m 148.608,220.0502 h -0.846 v 12.312 h 0.846 z"
         style="font-size:18px;line-height:1.25;font-family:'Fira Sans';-inkscape-font-specification:'Fira Sans Light, '"
         id="path131" />
      <path
         d="m 156.87001,219.8702 c -2.718,0 -4.932,2.106 -4.932,6.336 0,4.14 2.088,6.354 4.896,6.354 1.476,0 2.484,-0.54 3.258,-1.242 l -0.468,-0.576 c -0.738,0.594 -1.458,1.044 -2.754,1.044 -2.25,0 -4.032,-1.782 -4.032,-5.58 0,-3.996 1.836,-5.598 4.086,-5.598 1.044,0 1.728,0.288 2.556,0.936 l 0.468,-0.576 c -0.846,-0.684 -1.674,-1.098 -3.078,-1.098 z"
         style="font-size:18px;line-height:1.25;font-family:'Fira Sans';-inkscape-font-specification:'Fira Sans Light, '"
         id="path133" />
      <path
         d="m 162.27002,223.9382 c -0.414,0 -0.72,0.324 -0.72,0.738 0,0.378 0.306,0.702 0.72,0.702 0.45,0 0.738,-0.324 0.738,-0.702 0,-0.414 -0.288,-0.738 -0.738,-0.738 z m 0,7.182 c -0.414,0 -0.72,0.324 -0.72,0.72 0,0.396 0.306,0.72 0.72,0.72 0.45,0 0.738,-0.324 0.738,-0.72 0,-0.396 -0.288,-0.72 -0.738,-0.72 z"
         style="font-size:18px;line-height:1.25;font-family:'Fira Sans';-inkscape-font-specification:'Fira Sans Light, '"
         id="path135" />
      <path
         d="m 175.46402,219.8702 c -2.556,0 -5.058,2.016 -5.058,6.282 0,4.266 2.034,6.408 5.058,6.408 1.242,0 2.448,-0.36 3.51,-0.99 v -5.778 h -3.438 l 0.108,0.738 h 2.484 v 4.608 c -0.792,0.432 -1.602,0.666 -2.664,0.666 -2.52,0 -4.158,-1.8 -4.158,-5.652 0,-4.014 2.124,-5.544 4.158,-5.544 1.098,0 1.89,0.306 2.754,0.99 l 0.522,-0.558 c -0.99,-0.792 -1.89,-1.17 -3.276,-1.17 z"
         style="font-size:18px;line-height:1.25;font-family:'Fira Sans';-inkscape-font-specification:'Fira Sans Light, '"
         id="path137" />
      <path
         d="m 188.37003,220.0502 h -6.102 v 12.312 h 6.21 v -0.738 h -5.364 v -5.31 h 4.446 v -0.738 h -4.446 v -4.788 h 5.148 z"
         style="font-size:18px;line-height:1.25;font-family:'Fira Sans';-inkscape-font-specification:'Fira Sans Light, '"
         id="path139" />
      <path
         d="m 199.24202,220.0502 h -0.81 v 7.758 c 0,1.62 0.072,3.006 0.108,3.6 l -6.102,-11.358 h -1.098 v 12.312 h 0.81 v -7.326 c 0,-2.178 -0.054,-3.24 -0.108,-4.032 l 6.102,11.358 h 1.098 z"
         style="font-size:18px;line-height:1.25;font-family:'Fira Sans';-inkscape-font-specification:'Fira Sans Light, '"
         id="path141" />
      <path
         d="m 207.52203,219.8702 c -2.916,0 -4.95,2.304 -4.95,6.372 0,4.086 2.016,6.318 4.95,6.318 3.024,0 4.968,-2.304 4.968,-6.336 0,-4.158 -2.016,-6.354 -4.968,-6.354 z m 0,0.738 c 2.466,0 4.068,1.818 4.068,5.616 0,3.744 -1.548,5.58 -4.068,5.58 -2.394,0 -4.05,-1.836 -4.05,-5.562 0,-3.798 1.638,-5.634 4.05,-5.634 z"
         style="font-size:18px;line-height:1.25;font-family:'Fira Sans';-inkscape-font-specification:'Fira Sans Light, '"
         id="path143" />
      <path
         d="m 218.21403,220.0502 h -2.394 v 12.312 h 2.52 c 2.484,0 5.454,-1.134 5.454,-6.264 0,-5.058 -2.826,-6.048 -5.58,-6.048 z m 0.054,0.738 c 2.232,0 4.626,0.684 4.626,5.31 0,4.536 -2.304,5.526 -4.5,5.526 h -1.728 v -10.836 z"
         style="font-size:18px;line-height:1.25;font-family:'Fira Sans';-inkscape-font-specification:'Fira Sans Light, '"
         id="path145" />
      <path
         d="m 233.22604,220.0502 h -6.102 v 12.312 h 6.21 v -0.738 h -5.364 v -5.31 h 4.446 v -0.738 h -4.446 v -4.788 h 5.148 z"
         style="font-size:18px;line-height:1.25;font-family:'Fira Sans';-inkscape-font-specification:'Fira Sans Light, '"
         id="path147" />
      <path
         d="m 245.41204,220.0502 h -1.224 l -3.132,9.81 -3.222,-9.81 h -1.206 l -1.206,12.312 h 0.81 l 0.576,-6.102 c 0.18,-1.908 0.414,-4.23 0.468,-5.382 l 3.348,10.008 h 0.828 l 3.24,-10.008 c 0.09,1.152 0.306,3.474 0.522,5.472 l 0.612,6.012 h 0.828 z"
         style="font-size:18px;line-height:1.25;font-family:'Fira Sans';-inkscape-font-specification:'Fira Sans Light, '"
         id="path149" />
      <path
         d="m 252.81003,220.4102 h -0.702 l -3.528,2.196 0.396,0.63 3.006,-1.89 v 11.016 h 0.828 z"
         style="font-size:18px;line-height:1.25;font-family:'Fira Sans';-inkscape-font-specification:'Fira Sans Light, '"
         id="path151" />
      <path
         d="m 259.52404,220.0502 h -2.394 v 12.312 h 2.52 c 2.484,0 5.454,-1.134 5.454,-6.264 0,-5.058 -2.826,-6.048 -5.58,-6.048 z m 0.054,0.738 c 2.232,0 4.626,0.684 4.626,5.31 0,4.536 -2.304,5.526 -4.5,5.526 h -1.728 v -10.836 z"
         style="font-size:18px;line-height:1.25;font-family:'Fira Sans';-inkscape-font-specification:'Fira Sans Light, '"
         id="path153" />
      <path
         d="m 272.57404,219.8702 c -2.916,0 -4.95,2.304 -4.95,6.372 0,4.086 2.016,6.318 4.95,6.318 3.024,0 4.968,-2.304 4.968,-6.336 0,-4.158 -2.016,-6.354 -4.968,-6.354 z m 0,0.738 c 2.466,0 4.068,1.818 4.068,5.616 0,3.744 -1.548,5.58 -4.068,5.58 -2.394,0 -4.05,-1.836 -4.05,-5.562 0,-3.798 1.638,-5.634 4.05,-5.634 z"
         style="font-size:18px;line-height:1.25;font-family:'Fira Sans';-inkscape-font-specification:'Fira Sans Light, '"
         id="path155" />
      <path
         d="m 287.64003,232.3622 h 1.026 l -3.402,-5.778 c 1.728,-0.414 2.772,-1.368 2.772,-3.24 0,-2.124 -1.35,-3.294 -4.266,-3.294 h -2.898 v 12.312 h 0.846 v -5.634 h 2.664 z m -5.922,-6.354 v -5.22 h 1.998 c 2.484,0 3.42,0.882 3.42,2.556 0,1.854 -1.188,2.664 -3.24,2.664 z"
         style="font-size:18px;line-height:1.25;font-family:'Fira Sans';-inkscape-font-specification:'Fira Sans Light, '"
         id="path157" />
    </g>
  </g>
</svg>
