<?xml version="1.0" encoding="UTF-8" standalone="no"?>
<!-- Created with Inkscape (http://www.inkscape.org/) -->

<svg
   xmlns:dc="http://purl.org/dc/elements/1.1/"
   xmlns:cc="http://creativecommons.org/ns#"
   xmlns:rdf="http://www.w3.org/1999/02/22-rdf-syntax-ns#"
   xmlns:svg="http://www.w3.org/2000/svg"
   xmlns="http://www.w3.org/2000/svg"
   xmlns:xlink="http://www.w3.org/1999/xlink"
   xmlns:sodipodi="http://sodipodi.sourceforge.net/DTD/sodipodi-0.dtd"
   xmlns:inkscape="http://www.inkscape.org/namespaces/inkscape"
   width="640"
   height="350"
   viewBox="0 0 169.33334 92.604167"
   version="1.1"
   id="svg8"
   inkscape:version="0.92.4 5da689c313, 2019-01-14"
   sodipodi:docname="soak2019_teaser.svg">
  <defs
     id="defs2">
    <linearGradient
       inkscape:collect="always"
       id="Sky-Shadow">
      <stop
         style="stop-color:#0080ff;stop-opacity:0"
         offset="0"
         id="stop2149" />
      <stop
         style="stop-color:#1d2951;stop-opacity:1"
         offset="1"
         id="stop2151" />
    </linearGradient>
    <linearGradient
       inkscape:collect="always"
       id="bg-gradiant">
      <stop
         style="stop-color:#5a8bc0;stop-opacity:1"
         offset="0"
         id="stop1760" />
      <stop
         style="stop-color:#c1dceb;stop-opacity:1"
         offset="1"
         id="stop1762" />
    </linearGradient>
    <clipPath
       clipPathUnits="userSpaceOnUse"
       id="clipPath24">
      <path
         d="M 28.3468,0 C 28.3468,15.6557 15.6557,28.3468 0,28.3468 -15.6557,28.3468 -28.3468,15.6557 -28.3468,0 c 0,-15.6557 12.6911,-28.3468 28.3468,-28.3468 15.6557,0 28.3468,12.6911 28.3468,28.3468 z"
         id="path22"
         inkscape:connector-curvature="0" />
    </clipPath>
    <linearGradient
       inkscape:collect="always"
       xlink:href="#bg-gradiant"
       id="linearGradient1766"
       x1="455.08334"
       y1="-3.3333333"
       x2="455.08334"
       y2="417.35416"
       gradientUnits="userSpaceOnUse"
       gradientTransform="matrix(0.57631718,0,0,0.57737272,-178.50881,178.19833)" />
    <clipPath
       id="clipPath1804"
       clipPathUnits="userSpaceOnUse">
      <path
         inkscape:connector-curvature="0"
         id="path1802"
         d="M 0,595.28 H 841.89 V 0 H 0 Z" />
    </clipPath>
    <clipPath
       id="clipPath1982"
       clipPathUnits="userSpaceOnUse">
      <path
         inkscape:connector-curvature="0"
         id="path1980"
         d="M 265.71,213.753 H 394.874 V 157.17 H 265.71 Z" />
    </clipPath>
    <clipPath
       id="clipPath2002"
       clipPathUnits="userSpaceOnUse">
      <path
         inkscape:connector-curvature="0"
         id="path2000"
         d="M 265.821,236.891 H 521.73 V 153.353 H 265.821 Z" />
    </clipPath>
    <clipPath
       id="clipPath2022"
       clipPathUnits="userSpaceOnUse">
      <path
         inkscape:connector-curvature="0"
         id="path2020"
         d="m 430.126,220.86 h 91.646 v -67.523 h -91.646 z" />
    </clipPath>
    <clipPath
       id="clipPath2038"
       clipPathUnits="userSpaceOnUse">
      <path
         inkscape:connector-curvature="0"
         id="path2036"
         d="m 415.546,218.266 h 50.918 v -64.645 h -50.918 z" />
    </clipPath>
    <clipPath
       id="clipPath2058"
       clipPathUnits="userSpaceOnUse">
      <path
         inkscape:connector-curvature="0"
         id="path2056"
         d="m 413.358,242.597 c -0.21,0.203 -0.788,0.28 -1.015,0.396 v 0 c -2.195,1.093 -4.948,-1.636 -4.94,-1.636 v 0 c -0.662,-0.94 -1.325,-1.882 -1.987,-2.826 v 0 c 0,0 -1.083,-0.941 -2.166,-1.33 v 0 c -1.084,-2.161 -1.446,-2.824 -3.431,-2.99 v 0 c -1.988,-0.167 -2.888,-1.496 -2.888,-1.496 v 0 c 0,0 -0.363,-1.163 -1.628,-3.492 v 0 c -1.264,-2.322 -1.445,-0.996 -5.961,-6.479 v 0 c -0.844,-1.029 -3.525,-2.424 -4.382,-3.473 v 0 c -3.719,-4.546 -6.996,-9.324 -6.996,-9.324 v 0 c 3.614,3.156 7.673,5.086 11.283,8.242 v 0 c 0.316,-0.146 0.921,2.932 3.041,3.869 v 0 c 3.069,0.498 0.287,-0.128 -0.98,-2.121 v 0 c -1.262,-1.996 0.745,-2.677 -4.314,-6.002 v 0 c -3.367,-3.943 -4.203,-5.656 -4.971,-7.857 v 0 c 0,0 4.576,4.551 7.465,6.377 v 0 c 0.572,0.278 0.476,0.093 0.379,-0.091 v 0 c -0.096,-0.184 -0.192,-0.368 0.379,-0.091 v 0 c 0,0 0.722,0 3.973,2.492 v 0 c 3.252,2.495 -2.71,-6.98 -2.71,-6.98 v 0 c 0.782,0.498 6.443,5.985 7.227,6.485 v 0 c 0.329,0.081 0.39,-0.084 0.449,-0.251 v 0 c 0.06,-0.166 0.121,-0.332 0.453,-0.249 v 0 c 0.784,0.386 2.647,1.773 3.431,2.16 v 0 c 0,0 1.084,5.153 3.069,6.647 v 0 c 1.989,1.496 -1.081,-3.49 1.087,-4.488 v 0 c 0.031,0.022 0.335,-0.249 0.636,-0.519 v 0 c 0.302,-0.269 0.602,-0.538 0.632,-0.517 v 0 c 1.868,1.233 1.838,0.727 2.704,1.036 v 0 c -0.481,-0.663 -0.964,-1.329 -1.445,-1.993 v 0 c 0,-0.066 -1.875,-1.22 -2.157,-3.602 v 0 c -0.416,-3.539 -1.2,-2.809 -1.752,-3.346 v 0 c -0.346,-0.458 -0.145,0.872 0.065,2.201 v 0 c 0.218,1.385 0.443,2.769 0.064,2.135 v 0 c -1.604,-2.683 -5.011,-11.313 -5.24,-11.669 v 0 c 0.141,0.157 1.73,1.929 4.144,4.309 v 0 c 2.527,2.492 4.152,1.661 4.152,1.661 v 0 c 0,0 0.132,1.983 2.771,3.898 v 0 c 0.882,0.639 2.681,1.512 4.092,1.256 v 0 c 3.679,2.847 -0.581,4.953 1.503,6.941 v 0 c 0.301,-0.998 2.563,-3.634 2.862,-4.63 v 0 c 0.724,-0.833 -0.031,-2.478 0.696,-3.309 v 0 c 0,0 0.176,-1.328 0.176,-2.992 v 0 c 0,-1.662 0,-0.996 0.905,-3.823 v 0 c 0.902,-2.825 0,-3.155 1.082,-4.984 v 0 c 1.446,-2.327 2.365,-3.431 2.365,-3.431 v 0 c 6.142,-3.06 8.435,-2.205 4.319,-0.227 v 0 c -0.963,0.556 -0.662,1.439 -1.627,1.997 v 0 c -0.255,-0.355 -2.396,1.593 -1.803,6.149 v 0 c 0.073,0.873 0.266,0.811 0.48,0.748 v 0 c 0.381,-0.111 0.827,-0.223 0.781,4.903 v 0 c 1.085,4.817 -1.148,-0.755 -1.148,-0.755 v 0 c -0.121,1.276 -0.535,5.128 -0.656,6.404 v 0 c 0.299,1.438 -3.226,5.043 -2.937,6.49 v 0 c 0.057,-0.175 3.21,-3.966 5.425,-5.536 v 0 c 1.032,-0.732 2.465,-0.903 4.014,-2.614 v 0 c 4.695,-5.487 0.721,-3.657 2.71,-4.821 v 0 c 1.985,-1.166 1.624,-0.5 3.792,-2.162 v 0 c 1.898,-1.506 0.959,-0.427 5.97,-2.452 v 0 c 0.52,-0.207 0.957,-2.464 1.614,-2.7 v 0 c 3.133,-1.246 4.671,-1.296 5.284,-1.392 v 0 c 1.909,-0.299 1.515,-0.146 2.321,-0.434 v 0 c 0.875,-0.313 1.476,-0.235 1.648,-0.408 v 0 c 6.879,-6.956 1.165,1.729 -3.671,3.244 v 0 c -1.804,1.663 -3.774,1.318 -3.774,1.318 v 0 c -0.783,0.886 -1.564,1.772 -2.351,2.657 v 0 c 0,0 -0.202,-0.265 -2.009,1.064 v 0 c -3.898,2.351 -4.742,7.084 -7.476,10.769 v 0 c -0.364,0.776 -0.805,0.983 -1.169,1.758 v 0 c 0,0 -1.494,1.41 0.622,0.332 v 0 c 0.731,0.365 2.933,-1.242 5.008,-2.85 v 0 c 3.344,-2.59 6.362,-5.179 2.383,0.484 v 0 c -0.258,0.368 -1.133,1.827 -1.436,2.193 v 0 c -1.335,1.602 -4.929,4.556 -6.5,5.43 v 0 c 3.38,0.654 8.954,-4.388 12.928,-6.381 v 0 c 3.045,-2.742 4.936,-4.501 7.137,-6.382 v 0 c 1.322,-1.13 2.06,-2.941 5.172,-3.245 v 0 c 0.741,-0.479 5.618,-3.064 5.97,-3.184 v 0 c 1.959,-0.653 -4.252,4.033 -8.089,8.942 v 0 c -1.247,1.596 -1.44,3.374 -3.187,2.995 v 0 c -0.173,0.556 -1.52,2.195 -3.028,1.54 v 0 c -1.806,2.325 -4.156,1.825 -7.949,5.151 v 0 c -0.868,1.973 -3.792,5.366 -6.843,4.965 v 0 c -2.456,0.992 -2.859,2.808 -5.259,4.839 v 0 c -4.516,3.823 -4.175,2.245 -6.163,3.408 v 0 c -1.985,1.164 -1.308,1.019 -3.116,2.18 v 0 c -1.805,1.163 -2.36,1.471 -2.36,1.471 v 0 c 0,0 -1.184,0.42 -2.99,0.919 v 0 c -0.516,0.143 -0.87,0.21 -1.172,0.21 v 0 c -0.754,0 -1.182,-0.419 -2.987,-1.131 m 9.532,-20.171 c 0,0 0,0 0,0 m -22.168,-20.623 c 0.002,0 0.006,0.004 0.01,0.012 v 0 c -0.006,-0.008 -0.01,-0.012 -0.01,-0.012" />
    </clipPath>
    <linearGradient
       id="linearGradient2072"
       spreadMethod="pad"
       gradientTransform="matrix(-7.802628,34.63652,34.63652,7.802628,422.47656,208.28613)"
       gradientUnits="userSpaceOnUse"
       y2="0"
       x2="1"
       y1="0"
       x1="0">
      <stop
         id="stop2064"
         offset="0"
         style="stop-opacity:1;stop-color:#bce2f4" />
      <stop
         id="stop2066"
         offset="0.005435"
         style="stop-opacity:1;stop-color:#bce2f4" />
      <stop
         id="stop2068"
         offset="0.326087"
         style="stop-opacity:1;stop-color:#e1f2f7" />
      <stop
         id="stop2070"
         offset="1"
         style="stop-opacity:1;stop-color:#ffffff" />
    </linearGradient>
    <clipPath
       id="clipPath2082"
       clipPathUnits="userSpaceOnUse">
      <path
         inkscape:connector-curvature="0"
         id="path2080"
         d="M 0,595.28 H 841.89 V 0 H 0 Z" />
    </clipPath>
    <clipPath
       id="clipPath2098"
       clipPathUnits="userSpaceOnUse">
      <path
         inkscape:connector-curvature="0"
         id="path2096"
         d="m 432.475,197.68 c 0.992,-0.995 1.123,-1.953 2.363,-1.953 v 0 c 1.236,0 0.676,-1.913 1.351,-2.583 v 0 c 0.672,-0.68 1.801,-1.803 1.801,-3.041 v 0 c 0,-1.237 0.784,-2.179 1.979,-2.179 v 0 c 1.196,0 1.758,-1.757 1.758,-1.297 v 0 c 0,0.462 -2.154,3.486 -2.66,3.992 v 0 c -0.508,0.506 -0.829,2.381 -0.829,3.329 v 0 c 0,0.949 -1.392,0.443 -2.183,2.1 v 0 c -0.793,1.653 -2.498,1.632 -2.498,1.632 v 0 c 0,2.065 -2.347,3.434 -2.347,3.434 v 0 c 0,0 0.272,-2.44 1.265,-3.434" />
    </clipPath>
    <linearGradient
       id="linearGradient2112"
       spreadMethod="pad"
       gradientTransform="matrix(-2.3249505,10.320651,10.320651,2.3249505,437.04199,191.22852)"
       gradientUnits="userSpaceOnUse"
       y2="0"
       x2="1"
       y1="0"
       x1="0">
      <stop
         id="stop2104"
         offset="0"
         style="stop-opacity:1;stop-color:#bce2f4" />
      <stop
         id="stop2106"
         offset="0.005435"
         style="stop-opacity:1;stop-color:#bce2f4" />
      <stop
         id="stop2108"
         offset="0.326087"
         style="stop-opacity:1;stop-color:#e1f2f7" />
      <stop
         id="stop2110"
         offset="1"
         style="stop-opacity:1;stop-color:#ffffff" />
    </linearGradient>
    <clipPath
       id="clipPath2122"
       clipPathUnits="userSpaceOnUse">
      <path
         inkscape:connector-curvature="0"
         id="path2120"
         d="m 396.88,207.694 c 0,0 -0.797,-0.097 -1.64,-0.94 v 0 c -0.844,-0.843 -0.526,-2.142 -0.844,-2.461 v 0 c -0.318,-0.316 -0.282,0.492 -1.127,0.492 v 0 c -0.841,0 -0.701,0.14 -1.825,-0.984 v 0 c -1.126,-1.126 -0.326,-1.759 -1.126,-2.562 v 0 c -0.802,-0.798 -1.195,-1.193 -1.871,-1.868 v 0 l -0.676,-0.675 c 0,0 -0.655,-2.556 -1.315,-3.213 v 0 c -0.66,-0.66 2.033,0.657 2.952,1.576 v 0 c 0.919,0.919 0.094,0.808 0.769,1.481 v 0 c 0.675,0.676 0.899,1.126 1.349,2.362 v 0 c 0.26,0.717 0.892,1.541 1.259,1.989 v 0 c 0.01,-0.182 1.029,0.166 0.602,-1.474 v 0 c -0.511,-1.974 -2.101,-2.634 -0.977,-2.634 v 0 c 1.127,0 1.366,0.66 2.042,1.784 v 0 c 0.675,1.125 0,1.911 0.337,2.251 v 0 c 0.338,0.336 0.451,1.236 1.238,2.021 v 0 c 0.787,0.789 1.292,1.295 2.249,2.252 v 0 c 0.957,0.954 1.546,1.23 2.25,1.933 v 0 c 0.704,0.704 3.667,3.507 3.667,3.507 v 0 c 0,0 -8.313,-3.836 -7.313,-4.837" />
    </clipPath>
    <linearGradient
       id="linearGradient2136"
       spreadMethod="pad"
       gradientTransform="matrix(-1.8164062,8.06318,8.06318,1.8164062,395.73535,201.87598)"
       gradientUnits="userSpaceOnUse"
       y2="0"
       x2="1"
       y1="0"
       x1="0">
      <stop
         id="stop2128"
         offset="0"
         style="stop-opacity:1;stop-color:#bce2f4" />
      <stop
         id="stop2130"
         offset="0.005435"
         style="stop-opacity:1;stop-color:#bce2f4" />
      <stop
         id="stop2132"
         offset="0.326087"
         style="stop-opacity:1;stop-color:#e1f2f7" />
      <stop
         id="stop2134"
         offset="1"
         style="stop-opacity:1;stop-color:#ffffff" />
    </linearGradient>
    <clipPath
       id="clipPath2146"
       clipPathUnits="userSpaceOnUse">
      <path
         inkscape:connector-curvature="0"
         id="path2144"
         d="M 0,595.28 H 841.89 V 0 H 0 Z" />
    </clipPath>
    <clipPath
       id="clipPath2408"
       clipPathUnits="userSpaceOnUse">
      <path
         inkscape:connector-curvature="0"
         id="path2406"
         d="m 279.16,473.354 h 248.074 v -66.29 H 279.16 Z" />
    </clipPath>
    <clipPath
       id="clipPath2424"
       clipPathUnits="userSpaceOnUse">
      <path
         inkscape:connector-curvature="0"
         id="path2422"
         d="m 329.176,450.886 -11.433,-11.149 -0.487,-7.09 -6.893,-11.106 -9.48,-2.023 6.973,8.962 -2.375,7.227 2.375,8.394 -12.345,-12.277 -7.008,2.804 -7.942,-22.425 11.706,5.003 4.022,1.443 -1.436,-1.154 -1.438,-2.602 -3.644,-2.553 h 3.071 c 0,0 3.158,0.241 4.309,1.395 v 0 c 1.149,1.158 3.732,3.471 3.732,3.471 v 0 l 2.873,-2.313 5.458,-0.578 2.298,-4.335 1.435,9.538 4.884,5.492 2.584,1.154 1.028,5.155 7.014,4.677 -4.595,1.363 4.595,4.356 v 2.086 l 3.159,3.181 7.755,8.961 3.239,0.63 -2.442,2.382 z" />
    </clipPath>
    <linearGradient
       id="linearGradient2434"
       spreadMethod="pad"
       gradientTransform="matrix(62.04834,0,0,-62.04834,280.56152,434.4668)"
       gradientUnits="userSpaceOnUse"
       y2="0"
       x2="1"
       y1="0"
       x1="0">
      <stop
         id="stop2430"
         offset="0"
         style="stop-opacity:1;stop-color:#e1ebf0" />
      <stop
         id="stop2432"
         offset="1"
         style="stop-opacity:1;stop-color:#b6ceda" />
    </linearGradient>
    <clipPath
       id="clipPath2444"
       clipPathUnits="userSpaceOnUse">
      <path
         inkscape:connector-curvature="0"
         id="path2442"
         d="m 374.177,467.747 -3.446,-3.344 -2.871,-4.327 -2.443,-1.121 -1.458,-1.743 -3.282,-7.1 -7.118,-3.255 -2.359,-8.597 -5.169,-2.685 -2.3,-6.039 h 1.439 l 2.009,-3.129 h 1.569 v 4.457 l 3.027,1.905 1.989,4.626 3.18,-6.531 -1.435,-4.457 1.435,-0.866 h 3.159 l 2.586,-2.314 3.158,6.309 6.032,-1.393 4.309,2.721 6.32,4.711 4.594,6.734 v 6.493 7.382 l -3.158,-1.446 -2.298,4.047 v 1.809 l -2.874,3.433 0.862,1.696 -0.479,5.612 z" />
    </clipPath>
    <linearGradient
       id="linearGradient2454"
       spreadMethod="pad"
       gradientTransform="matrix(43.370605,0,0,-43.370605,343.73096,447.28125)"
       gradientUnits="userSpaceOnUse"
       y2="0"
       x2="1"
       y1="0"
       x1="0">
      <stop
         id="stop2450"
         offset="0"
         style="stop-opacity:1;stop-color:#e1ebf0" />
      <stop
         id="stop2452"
         offset="1"
         style="stop-opacity:1;stop-color:#b6ceda" />
    </linearGradient>
    <clipPath
       id="clipPath2464"
       clipPathUnits="userSpaceOnUse">
      <path
         inkscape:connector-curvature="0"
         id="path2462"
         d="m 395.202,458.821 v -3.443 -5.781 l -4.652,-6.071 v -6.359 l 2.326,-7.282 5.716,10.399 h -2.297 l 2.297,4.07 4.609,-2.273 v 5.858 h 4.581 l -4.581,8.939 -1.738,1.943 1.226,2.124 0.512,3.81 z" />
    </clipPath>
    <linearGradient
       id="linearGradient2474"
       spreadMethod="pad"
       gradientTransform="matrix(17.231934,0,0,-17.231934,390.5498,447.32031)"
       gradientUnits="userSpaceOnUse"
       y2="0"
       x2="1"
       y1="0"
       x1="0">
      <stop
         id="stop2470"
         offset="0"
         style="stop-opacity:1;stop-color:#e1ebf0" />
      <stop
         id="stop2472"
         offset="1"
         style="stop-opacity:1;stop-color:#b6ceda" />
    </linearGradient>
    <clipPath
       id="clipPath2484"
       clipPathUnits="userSpaceOnUse">
      <path
         inkscape:connector-curvature="0"
         id="path2482"
         d="m 429.358,468.898 -3.767,-3.756 -7.756,-1.528 -1.723,-3.31 -5.456,-2.291 1.435,-14.285 3.159,-6.36 v -4.626 l 6.896,0.722 2.009,-3.955 6.319,3.955 -1.15,6.442 3.446,1.509 1.724,-1.509 3.158,3.854 -8.04,8.639 0.862,10.407 -0.862,1.571 h 4.021 5.743 l -2.008,4.521 -0.661,4.436 z" />
    </clipPath>
    <linearGradient
       id="linearGradient2494"
       spreadMethod="pad"
       gradientTransform="matrix(28.720703,0,0,-28.720703,410.65527,451.42139)"
       gradientUnits="userSpaceOnUse"
       y2="0"
       x2="1"
       y1="0"
       x1="0">
      <stop
         id="stop2490"
         offset="0"
         style="stop-opacity:1;stop-color:#e1ebf0" />
      <stop
         id="stop2492"
         offset="1"
         style="stop-opacity:1;stop-color:#b6ceda" />
    </linearGradient>
    <clipPath
       id="clipPath2504"
       clipPathUnits="userSpaceOnUse">
      <path
         inkscape:connector-curvature="0"
         id="path2502"
         d="m 454.296,458.486 -2.854,-8.383 1.427,-5.691 6.327,-11.219 6.605,-2.629 v -6.484 h 5.17 l 2.299,-1.152 3.732,1.152 h 8.042 8.331 l 1.437,6.484 -8.331,2.629 -3.446,8.815 -13.214,2.892 -4.02,4.046 1.435,1.157 -5.169,3.758 1.15,4.625 -2.138,3.465 z" />
    </clipPath>
    <linearGradient
       id="linearGradient2514"
       spreadMethod="pad"
       gradientTransform="matrix(43.370117,0,0,-43.370117,451.44141,442.43945)"
       gradientUnits="userSpaceOnUse"
       y2="0"
       x2="1"
       y1="0"
       x1="0">
      <stop
         id="stop2510"
         offset="0"
         style="stop-opacity:1;stop-color:#e1ebf0" />
      <stop
         id="stop2512"
         offset="1"
         style="stop-opacity:1;stop-color:#b6ceda" />
    </linearGradient>
    <clipPath
       id="clipPath2524"
       clipPathUnits="userSpaceOnUse">
      <path
         inkscape:connector-curvature="0"
         id="path2522"
         d="m 495.959,441.301 h 0.862 l 11.201,-10.4 8.28,-1.392 -3.397,2.723 -6.343,4.711 -2.274,4.358 3.734,2.803 0.7,4.322 z" />
    </clipPath>
    <linearGradient
       id="linearGradient2534"
       spreadMethod="pad"
       gradientTransform="matrix(20.342773,0,0,-20.342773,495.95898,438.96777)"
       gradientUnits="userSpaceOnUse"
       y2="0"
       x2="1"
       y1="0"
       x1="0">
      <stop
         id="stop2530"
         offset="0"
         style="stop-opacity:1;stop-color:#e1ebf0" />
      <stop
         id="stop2532"
         offset="1"
         style="stop-opacity:1;stop-color:#b6ceda" />
    </linearGradient>
    <clipPath
       id="clipPath2544"
       clipPathUnits="userSpaceOnUse">
      <path
         inkscape:connector-curvature="0"
         id="path2542"
         d="M 0,595.28 H 841.89 V 0 H 0 Z" />
    </clipPath>
    <linearGradient
       inkscape:collect="always"
       xlink:href="#Sky-Shadow"
       id="linearGradient2155-8"
       x1="-137.37498"
       y1="233.73685"
       x2="-127.33494"
       y2="239.63042"
       gradientUnits="userSpaceOnUse"
       gradientTransform="matrix(0.15880961,0,0,0.96920212,16.333731,-443.83884)" />
    <linearGradient
       inkscape:collect="always"
       xlink:href="#Sky-Shadow"
       id="linearGradient2155-8-7"
       x1="-242.91031"
       y1="257.8569"
       x2="-242.71039"
       y2="259.5015"
       gradientUnits="userSpaceOnUse"
       gradientTransform="matrix(0.2199467,0,0,0.96920212,82.637819,-443.83884)" />
    <linearGradient
       inkscape:collect="always"
       xlink:href="#Sky-Shadow"
       id="linearGradient2155-8-7-0"
       x1="-203.31058"
       y1="252.36285"
       x2="-203.06189"
       y2="254.48503"
       gradientUnits="userSpaceOnUse"
       gradientTransform="matrix(0.07636845,0,0,0.96920212,-55.184229,-443.83906)" />
    <linearGradient
       inkscape:collect="always"
       xlink:href="#Sky-Shadow"
       id="linearGradient2155-8-7-0-6"
       x1="-203.31058"
       y1="252.36285"
       x2="-203.06189"
       y2="254.48503"
       gradientUnits="userSpaceOnUse"
       gradientTransform="matrix(0.07636845,0,0,0.96920212,113.09523,-443.8463)" />
    <linearGradient
       inkscape:collect="always"
       xlink:href="#Sky-Shadow"
       id="linearGradient2155-8-4"
       x1="-137.37498"
       y1="233.73685"
       x2="-127.33494"
       y2="239.63042"
       gradientUnits="userSpaceOnUse"
       gradientTransform="matrix(0.15880961,0,0,0.96920212,184.92842,-443.83915)" />
    <linearGradient
       inkscape:collect="always"
       xlink:href="#Sky-Shadow"
       id="linearGradient2155-8-7-4"
       x1="-242.91031"
       y1="257.8569"
       x2="-242.71039"
       y2="259.5015"
       gradientUnits="userSpaceOnUse"
       gradientTransform="matrix(0.2199467,0,0,0.96920212,-85.639064,-443.83902)" />
  </defs>
  <sodipodi:namedview
     id="base"
     pagecolor="#ffffff"
     bordercolor="#666666"
     borderopacity="1.0"
     inkscape:pageopacity="0.0"
     inkscape:pageshadow="2"
     inkscape:zoom="1"
     inkscape:cx="231.82641"
     inkscape:cy="257.01272"
     inkscape:document-units="mm"
     inkscape:current-layer="layer6"
     showgrid="true"
     inkscape:window-width="1920"
     inkscape:window-height="1052"
     inkscape:window-x="0"
     inkscape:window-y="0"
     inkscape:window-maximized="1"
     inkscape:snap-page="false"
     inkscape:snap-grids="false"
     inkscape:snap-to-guides="false"
     units="px">
    <inkscape:grid
       id="grid817"
       type="xygrid" />
  </sodipodi:namedview>
  <metadata
     id="metadata5">
    <rdf:RDF>
      <cc:Work
         rdf:about="">
        <dc:format>image/svg+xml</dc:format>
        <dc:type
           rdf:resource="http://purl.org/dc/dcmitype/StillImage" />
        <dc:title></dc:title>
      </cc:Work>
    </rdf:RDF>
  </metadata>
  <g
     inkscape:groupmode="layer"
     id="layer3"
     inkscape:label="Background"
     style="display:inline"
     transform="translate(0,-327.39591)">
    <rect
       style="display:inline;opacity:1;fill:url(#linearGradient1766);fill-opacity:1;stroke:none;stroke-width:0.09202489;stroke-miterlimit:4;stroke-dasharray:0.73619919, 0.73619919;stroke-dashoffset:0;stroke-opacity:1"
       id="rect1758"
       width="171.5444"
       height="242.58797"
       x="-1.6272757"
       y="176.27377" />
  </g>
  <g
     inkscape:label="Mountain"
     inkscape:groupmode="layer"
     id="layer1"
     transform="translate(0,-204.3959)"
     style="display:inline">
    <g
       id="g5009"
       transform="matrix(0.57758865,0,0,0.57758865,-11.399161,-2.03338)">
      <g
         style="fill:#1c4828;fill-opacity:1"
         transform="matrix(1.266605,0,0,-1.9461927,20.479987,482.7051)"
         id="g1960">
        <path
           inkscape:connector-curvature="0"
           id="path1962"
           style="fill:#1c4828;fill-opacity:1;fill-rule:evenodd;stroke:none"
           d="m 0,0 c 0,0 0.398,-0.06 1.137,-0.045 0.739,0.016 1.819,0.102 3.183,0.382 1.365,0.285 3.012,0.767 4.889,1.578 0.754,0.673 -0.415,1.414 6.251,3.53 0.641,0.231 0.945,0.968 1.477,1.213 1.902,0.87 3.319,1.364 3.108,2.857 0.771,1.57 1.505,2.536 2.606,2.779 1.966,2.5 2.159,1.651 3.093,0.745 1.037,-0.128 2.64,-0.735 4.401,-1.438 0.588,-0.234 0.936,-0.288 1.629,-0.592 0.268,-0.115 0.434,0.277 0.799,-0.351 0.281,-0.477 1.767,-0.743 1.972,-0.824 5.763,-2.335 7.105,-1.992 14.564,-3.48 9.095,-1.818 16.37,-1.818 16.37,-1.818 0,0 -0.911,-6.35 -15.46,-9.076 C 35.467,-7.263 17.28,-9.988 17.28,-9.988 L 1.819,-14.524 c -3.596,-1.054 -16.177,-8.674 -20.254,-6.14 -2.614,1.626 1.229,10.676 1.742,12.399 0.401,1.347 -1.411,1.823 -0.801,2.907 0.661,1.169 4.283,3.394 7.232,3.812 C -9.175,-1.39 -1.09,-0.589 0,0" />
      </g>
      <g
         style="fill:#1c4828;fill-opacity:1"
         transform="matrix(1.266605,0,0,-1.9461927,45.031605,465.55992)"
         id="g1964">
        <path
           inkscape:connector-curvature="0"
           id="path1966"
           style="fill:#1c4828;fill-opacity:1;fill-rule:evenodd;stroke:none"
           d="M 0,0 C 0,0 0.357,1.975 1.75,2.858 3.141,3.747 3.715,5.247 4.954,5.247 6.195,5.247 8.953,3.49 8.953,3.49 6.77,3.72 2.562,2.867 3.418,1.783 4.274,0.701 4.916,-0.186 4.916,-0.186 L 2.774,0.994 2.026,0.012 1.17,-1.468 -0.627,-2.056 -5.309,-3.871 c 0,0 5.846,4.066 5.309,3.871" />
      </g>
      <g
         style="fill:#1c4828;fill-opacity:1"
         transform="matrix(1.266605,0,0,-1.9461927,313.6979,453.80102)"
         id="g1968">
        <path
           inkscape:connector-curvature="0"
           id="path1970"
           style="fill:#1c4828;fill-opacity:1;fill-rule:evenodd;stroke:none"
           d="m 0,0 c -0.6,-0.117 -7.303,8.666 -8.408,8.704 -1.109,0.04 -2.446,0.227 -3.97,0.701 -0.613,0.536 0.336,1.491 -5.075,2.41 -0.52,0.119 -0.767,0.799 -1.199,0.951 -1.544,0.528 -4.139,0.39 -3.969,1.919 -0.628,1.431 -1.222,2.264 -2.117,2.312 -1.594,2.146 -2.592,0.948 -3.349,-0.123 -0.846,-0.315 0.145,-0.513 -1.285,-1.528 -0.478,-0.341 -0.761,-0.012 -1.322,-0.441 -0.218,-0.165 -2.101,-1.308 -2.55,-0.944 -0.299,0.243 -2.615,-0.906 -2.984,-1.177 -0.175,-0.128 -6.952,1.462 -12.42,-3.702 -7.38,-3.442 -9.407,-7.132 -9.407,-7.132 0,0 3.625,-5.113 15.436,-5.231 C -30.807,-3.4 -7.374,-8.616 -7.374,-8.616 5.844,-7.014 0.599,0.118 0,0" />
      </g>
      <g
         style="fill:#1c4828;fill-opacity:1"
         transform="matrix(1.266605,0,0,-1.9461927,179.3443,492.21556)"
         id="g1972">
        <path
           inkscape:connector-curvature="0"
           id="path1974"
           style="fill:#1c4828;fill-opacity:1;fill-rule:evenodd;stroke:none"
           d="m 0,0 c 1.29,1.477 39.143,32.404 40.257,33.235 1.114,0.831 6.317,1.945 7.134,2.602 0.457,0.373 0.718,1.159 1.083,1.502 1.938,1.831 2.948,2.731 2.948,2.731 0.931,0.405 1.933,1.588 2.917,2.048 1.081,0.506 2.152,0.293 3.287,0.857 0.449,0.012 0.934,-0.59 1.435,-1.466 0.032,-0.883 1.167,-1.709 1.736,-2.128 1.292,-2.663 6.667,-4.219 7.908,-5.99 0.021,-0.787 0.554,-1.628 0.726,-2.286 1.194,-2.766 9.317,-3.54 8.92,-6.622 4.705,-1.529 7.671,-4.18 7.889,-3.888 3.116,-1.926 4.981,-0.562 8.098,-2.49 3.2,-0.223 7.913,-6.759 11.113,-6.983 3.872,-6.171 -2.169,-5.631 0,-8.211 0,0 8.374,-12.949 -4.369,-12.903 -12.744,0.05 -46.545,8.608 -53.42,8.108 C 45.773,-2.018 -0.143,-0.177 0,0" />
      </g>
      <g
         style="fill:#2c6439;fill-opacity:1"
         transform="matrix(1.266605,0,0,-1.9461927,-342.83767,836.53013)"
         id="g1976">
        <g
           style="fill:#2c6439;fill-opacity:1"
           id="g1978" />
        <g
           style="fill:#2c6439;fill-opacity:1"
           id="g1990">
          <g
             style="opacity:0.80000299;fill:#2c6439;fill-opacity:1"
             id="g1988"
             clip-path="url(#clipPath1982)">
            <g
               style="fill:#2c6439;fill-opacity:1"
               id="g1986"
               transform="translate(372.4775,207.6582)">
              <path
                 inkscape:connector-curvature="0"
                 id="path1984"
                 style="fill:#2c6439;fill-opacity:1;fill-rule:evenodd;stroke:none"
                 d="m 0,0 c -2.349,1.207 -6.433,-3.598 -8.424,-2.994 -1.991,0.607 -1.062,0.35 -2.526,0.848 -0.82,0.275 -0.518,1.196 -1.175,1.464 -3.5,1.433 -4.079,0.413 -4.079,0.413 -1.635,0.223 -3.468,1.204 -5.201,1.468 -1.903,0.289 -3.714,-0.126 -5.711,0.207 -0.774,-0.075 -1.544,-0.76 -2.321,-1.724 0.033,-0.881 -0.056,-1.718 -0.995,-2.24 -1.95,-2.884 -3.901,-4.988 -5.853,-6.978 0.043,-0.785 -0.791,-1.716 -1.02,-2.401 -1.108,-3.297 -4.322,-5.231 -7.999,-5.903 -9.097,-1.673 -16.372,-8.369 -16.372,-8.369 0,0 -13.132,-5.201 -15.46,-7.53 -0.717,-1.602 -8.786,-0.986 -9.424,-2.568 -3.281,-1.109 -9.321,0.872 -10.832,-0.635 -1.509,-0.791 -3.814,-0.464 -4.681,-1.379 -9.466,-10.008 -1.687,-9.966 -1.687,-9.966 0,0 10.255,-3.863 32.081,-1.354 21.826,2.513 51.838,13.392 63.66,14.227 11.704,0.828 46.64,26.66 21.55,41.506 C 13.281,6.243 0.264,-0.151 0,0" />
            </g>
          </g>
        </g>
      </g>
      <g
         transform="matrix(1.266605,0,0,-1.9461927,94.115082,430.43348)"
         id="g1992">
        <path
           inkscape:connector-curvature="0"
           id="path1994"
           style="fill:#ffffff;fill-opacity:1;fill-rule:evenodd;stroke:none"
           d="m 0,0 c 0,0 -1.926,-0.395 -1.604,-2.165 0.322,-1.773 -0.536,-0.789 -1.713,-2.758 -1.177,-1.972 0.427,-1.38 0.427,-1.38 0,0 0.536,0.395 -1.069,-0.884 -1.606,-1.282 -2.355,-1.577 -3.532,-2.56 -1.177,-0.986 -0.963,-1.186 0.322,-1.775 1.283,-0.59 0.535,-0.887 -1.499,-2.757 -2.033,-1.871 -2.248,-2.366 -3.533,-3.053 -1.284,-0.69 -3.638,-0.593 -6.205,-2.167 -2.571,-1.574 -6.743,-3.054 -5.459,-2.067 1.285,0.983 1.821,1.378 1.821,1.378 0,0 -3.64,-0.885 -6.102,-3.154 -2.461,-2.262 -7.491,-4.461 -7.491,-4.461 l -6.956,-5.113 c 0,0 12.093,6.325 14.876,8.197 2.781,1.871 5.884,2.166 4.708,0.985 -1.177,-1.182 -4.816,-4.826 -4.816,-4.826 0,0 5.137,3.644 9.205,5.712 4.067,2.068 6.848,3.841 7.919,4.331 0.461,0.213 5.489,-2.026 6.665,-3.472 2.825,-3.475 -1.595,4.787 -0.97,4.938 0.307,0.076 3.7,-2.936 0.914,0.23 -1.046,1.187 2.943,0.786 3.745,1.141 2.247,0.982 -7.357,-0.175 -8.748,-0.965 -1.392,-0.789 -6.635,-3.84 -6.635,-3.84 0,0 6.849,5.809 9.311,6.698 2.46,0.886 5.029,2.559 6.526,3.249 1.499,0.689 -4.388,0.1 -3.209,0.985 1.176,0.887 1.925,1.871 3.746,2.461 1.818,0.59 -2.355,1.675 -1.286,2.364 1.072,0.69 5.975,-2.459 7.472,-3.049 1.5,-0.59 -5.01,4.628 -6.294,5.217 -1.284,0.592 0,1.181 1.607,1.279 C 3.746,-1.182 0.107,-0.295 0,0" />
      </g>
      <g
         style="fill:#449155;fill-opacity:0.62745098"
         transform="matrix(1.266605,0,0,-1.9461927,-342.83767,836.53013)"
         id="g1996">
        <g
           style="fill:#449155;fill-opacity:0.62745098"
           id="g1998" />
        <g
           style="fill:#449155;fill-opacity:0.62745098"
           id="g2010">
          <g
             style="opacity:0.80000299;fill:#449155;fill-opacity:0.62745098"
             id="g2008"
             clip-path="url(#clipPath2002)">
            <g
               style="fill:#449155;fill-opacity:0.62745098"
               id="g2006"
               transform="translate(265.8208,162.5977)">
              <path
                 inkscape:connector-curvature="0"
                 id="path2004"
                 style="fill:#449155;fill-opacity:0.62745098;fill-rule:evenodd;stroke:none"
                 d="m 0,0 c 3.286,5.457 15.607,2.674 23.488,4.871 2.415,-1.448 14.707,0.157 17.858,-0.247 10.076,2.689 24.421,9.584 24.421,9.584 0,0 13.774,1.41 22.868,7.99 9.093,10.882 16.369,18.412 27.282,28.454 10.913,10.042 19.099,20.922 28.192,22.595 9.096,1.674 17.279,0.837 17.279,0.837 0,0 19.101,-12.555 29.101,-20.085 10.007,-7.532 29.104,-25.816 29.104,-25.816 -0.079,0 8.3,-2.753 12.491,-8.682 0.706,-1 2.151,-0.205 7.503,-0.677 2.119,-0.187 5.498,-2.582 7.371,-2.835 3.557,-0.482 8.733,-0.157 8.509,-1.325 2.239,-3.14 -4.784,-19.375 -3.839,-22.338 1.216,-3.806 -9.482,1.743 -9.299,0.584 -4.548,1.674 -17.28,-3.348 -21.829,-1.676 L 24.68,-9.245 C 13.602,-3.713 2.161,-6.576 0,0" />
            </g>
          </g>
        </g>
      </g>
      <g
         style="fill:#2c6439;fill-opacity:1"
         transform="matrix(1.266605,0,0,-1.9461927,137.67438,542.25588)"
         id="g2012">
        <path
           inkscape:connector-curvature="0"
           id="path2014"
           style="fill:#2c6439;fill-opacity:1;fill-rule:evenodd;stroke:none"
           d="m 0,0 c 0,0 79.071,4.01 93.684,3.06 14.612,-0.951 25.72,-0.887 30.295,0.472 4.576,1.359 5.462,2.851 5.462,2.851 0,0 -4.129,14.805 -11.217,21.053 -7.085,6.247 -33.651,24.716 -34.092,25.803 -0.445,1.086 -5.462,2.446 -9.152,5.706 -3.691,3.259 -1.918,3.663 -7.233,6.247 -5.313,2.58 -5.463,4.073 -7.528,5.161 -2.067,1.085 -2.803,2.581 -5.017,3.94 -2.216,1.358 -2.511,0.544 -5.314,1.765 -2.804,1.221 -3.247,4.344 -5.756,5.43 -2.508,1.088 0.59,-4.074 0,-7.468 -0.589,-3.397 -4.867,-1.69 -5.901,-3.863 -1.033,-2.174 -1.921,-7.137 -1.921,-7.137 0,0 2.803,-3.668 2.803,-6.927 0,-3.26 -3.482,-1.762 -1.119,-5.158 2.361,-3.395 0.677,-3.537 1.119,-7.881 0.444,-4.347 -6.197,-16.688 -7.676,-20.762 -1.474,-4.074 5.905,9.624 7.528,9.49 1.624,-0.137 -2.066,-3.261 -2.655,-6.247 -0.053,-0.261 0.842,-1.921 2.152,-4.212 0.732,-1.282 1.595,-2.764 2.495,-4.308 3.206,-5.506 6.881,-11.82 6.802,-12.837 -0.066,-0.865 -4.245,4.113 -7.71,8.036 -2.425,2.747 -4.5,4.98 -4.556,4.316 -0.096,-1.129 2.282,-4.729 2.154,-5.762 C 37.453,9.184 37.269,7.729 36.948,6.785 35.583,2.761 33.063,22.545 30.11,18.877 29.088,17.61 28.737,12.528 27.855,11.015 26.183,8.155 24.089,8.614 22.352,5.416 c -2.658,-4.889 0.674,16.857 0.674,16.857 0,0 -6.44,-12.659 -7.918,-14.155 C 13.633,6.626 9.065,4.435 7.442,3.211 c -1.626,-1.223 5.4,10.777 5.4,10.777 0,0 -5.46,-4.617 -6.936,-6.655 C 4.429,5.297 2.389,5.958 0.591,4.161 c -1.799,-1.799 0,7.112 0,7.112 0,0 -1.772,-5.296 -2.657,-6.926 -0.885,-1.63 1.523,10.756 -0.978,7.055 C -5.545,7.703 -16.857,3.184 -16.857,3.184 -16.857,3.184 0.591,0.814 0,0" />
      </g>
      <g
         style="fill:#2c6439;fill-opacity:1"
         transform="matrix(1.266605,0,0,-1.9461927,-342.83767,836.53013)"
         id="g2016">
        <g
           style="fill:#2c6439;fill-opacity:1"
           id="g2018" />
        <g
           style="fill:#2c6439;fill-opacity:1"
           id="g2030">
          <g
             style="opacity:0.80000299;fill:#2c6439;fill-opacity:1"
             id="g2028"
             clip-path="url(#clipPath2022)">
            <g
               style="fill:#2c6439;fill-opacity:1"
               id="g2026"
               transform="translate(447.0225,213.041)">
              <path
                 inkscape:connector-curvature="0"
                 id="path2024"
                 style="fill:#2c6439;fill-opacity:1;fill-rule:evenodd;stroke:none"
                 d="m 0,0 c -0.213,0.062 0.541,-0.72 4.18,-2.14 0.84,-0.327 0.857,-2.101 2.162,-2.297 6.97,-1.049 3.763,-0.661 6.345,-2.568 1.21,-0.896 2.229,-0.4 0.478,1.81 -0.857,1.081 -2.498,2.8 -4.12,4.458 C 6.678,1.684 4.346,3.966 4.561,3.91 7.077,3.285 18.87,-4.626 20.927,-6.837 c 3.427,-3.685 5.773,-6.148 9.062,-8.781 5.149,-4.126 2.446,-4.7 7.266,-7.734 0.876,-0.552 2.424,-2.735 3.187,-3.305 1.897,-1.42 0.983,-0.046 0.653,3.263 1.386,0 5.46,-4.152 9.308,-8.42 0.891,-0.989 -0.01,1.412 0.822,0.461 0.947,-1.08 11.994,-3.392 14.003,-9.492 0.689,-2.093 0.899,5.056 -5.134,8.77 5.663,-2.379 9.249,-5.352 8.595,-4.553 0.849,0.849 2.643,-0.852 5.577,0.849 2.427,-2.512 -4.912,-9.931 -7.938,-11.534 -0.369,-0.196 -8.085,-2.096 -11.107,0.53 -2.136,1.858 -0.638,-1.728 -2.904,0.211 -3.177,2.725 -9.932,10.749 -10.996,11.03 -1.158,0.305 2.15,-3.293 5.752,-7.193 4.009,-4.337 8.385,-9.047 7.369,-9.147 -1.497,-0.147 -5.794,-3.328 -5.984,-3.184 -0.948,0.697 -4.767,5.549 -8.985,10.948 -4.619,5.905 -9.717,12.459 -12.069,14.927 -1.486,1.562 -2.695,3.269 -3.763,4.895 -1.483,2.257 -2.698,4.359 -4.008,5.711 -2.359,2.433 -2.723,3.056 0.264,-3.427 0.691,-1.498 1.084,-2.882 2.34,-5.111 2.509,-4.448 7.754,-6.502 7.754,-6.502 l 10.934,-16.713 c -1.365,0.664 -2.845,1.933 -4.359,3.467 -1.753,1.775 6.747,-11.574 5.034,-9.645 -2.034,2.286 -14.244,19.771 -15.823,20.589 -0.632,0.329 -4.84,4.283 -5.248,4.489 -1.241,0.626 4.488,-7.968 9.289,-15.845 3.753,-6.162 6.944,-11.884 5.796,-12.421 -0.532,0.531 -1.885,2.565 -3.69,5.42 -1.197,1.892 -2.592,4.143 -4.077,6.562 -1.386,2.259 -1.104,-1.141 -2.564,1.247 -5.1,8.347 -11.869,22.34 -13.103,23.591 -2.539,2.566 -4.822,3.5 -4.822,3.5 l 6.91,-9.321 c 0,0 -11.478,10.024 -8.434,6.756 3.044,-3.272 4.824,-5.607 4.824,-5.607 l 1.776,-2.8 1.775,-3.037 c 0,0 9.062,-11.442 5.764,-8.641 -2.373,2.013 -3.273,2.096 -0.59,-2.456 1.052,-1.787 5.372,-6.134 5.513,-6.909 0.135,-0.734 6.145,-6.046 1.793,-3.23 -0.8,0.521 -5.476,4.391 -7.404,6.794 -0.604,0.751 -1.169,1.522 -1.638,2.253 -3.673,5.715 -7.129,7.602 -8.779,11.371 -2.793,0.466 6.6,-11.654 6.234,-13.658 -2.966,1.783 -19.418,30.589 -21.956,31.989 -2.538,1.401 6.74,-12.731 8.13,-14.12 -6.595,0 -13.135,18.29 -14.98,20.659 -1.847,2.37 -3.009,7.092 -3.189,7.06 -0.123,-0.022 2.603,-3.514 4.5,-5.566 0.865,-0.932 1.837,-1.819 3.256,-2.428 4.54,-1.953 3.552,-1.168 5.328,-3.5 1.778,-2.337 0.507,-1.406 3.3,-4.439 2.792,-3.036 -0.252,5.138 -0.252,5.138 l -11.312,9.651 c -0.303,0.257 14.863,-8.597 17.401,-9.887 2.538,-1.287 2.766,-1.488 5.764,-3.503 3.734,-2.509 8.366,-8.278 9.742,-9.653 0.239,1.377 -7.232,9.644 -9.88,12.076 -2.791,2.571 -4.865,5.987 -4.865,5.987 L 0,-6.773 -3.047,-2.102 c 0,0 0.253,0.466 -2.028,3.269 -2.285,2.804 -4.898,6.652 -4.898,6.652 0,0 7.942,-4.082 9.973,-7.819" />
            </g>
          </g>
        </g>
      </g>
      <g
         style="fill:#1c4828;fill-opacity:1"
         transform="matrix(1.266605,0,0,-1.9461927,-342.83767,836.53013)"
         id="g2032">
        <g
           style="fill:#1c4828;fill-opacity:1"
           id="g2034" />
        <g
           style="fill:#1c4828;fill-opacity:1"
           id="g2046">
          <g
             style="opacity:0.80000299;fill:#1c4828;fill-opacity:1"
             id="g2044"
             clip-path="url(#clipPath2038)">
            <g
               style="fill:#1c4828;fill-opacity:1"
               id="g2042"
               transform="translate(418.9077,190.6074)">
              <path
                 inkscape:connector-curvature="0"
                 id="path2040"
                 style="fill:#1c4828;fill-opacity:1;fill-rule:evenodd;stroke:none"
                 d="m 0,0 c 0,0 1.168,3.1 2.22,5.022 0.482,-0.896 2.266,-5.763 2.871,-7.307 0.507,-1.291 2.562,-7.606 3.12,-7.986 0.562,-0.383 0.512,4.223 0.35,5.486 -0.261,2.034 0.9,5.076 1.535,2.231 0.761,-3.968 0.508,-5.369 0.508,-5.369 0.675,-0.932 8.514,-11.13 9.19,-12.064 0.931,-0.619 -5.299,8.012 -4.369,7.392 0,0 2.763,-1.73 5.168,-4.175 2.028,-2.06 3.8,-4.622 3.452,-7.078 1.206,-0.502 10.034,-9.311 12.069,-10.524 1.247,-0.745 -4.466,6.247 -3.082,5.387 0.888,-0.552 1.789,-1.115 2.685,-1.674 4.949,-3.08 9.788,-6.044 11.572,-6.327 0.447,0.509 -8.209,7.829 -7.799,8.752 0.14,0.304 6.144,-4.586 8.066,-5.413 -0.772,0.771 -1.549,2.99 -2.772,4.606 -2.04,2.691 -5.696,7.312 -8.803,10.843 -1.81,1.928 -4.149,3.287 -6.241,5.018 -3.483,2.889 -6.258,5.374 -4.672,2.688 0.464,-0.571 1.009,-1.249 1.596,-1.99 3.177,-4.011 7.639,-9.824 7.572,-9.948 0.191,-0.191 -7.315,4.23 -9.146,5.768 -1.424,1.197 -0.938,2.687 -1.798,5.002 -0.505,1.626 -0.567,2.896 -0.507,3.952 0.124,2.13 0.741,3.395 -0.785,4.953 -1.034,1.058 -3.082,5.138 -5.498,8.841 -0.547,0.837 -1.989,0.711 -2.537,1.498 -2.365,3.408 -4.953,13.687 -4.953,13.687 0,0 0.576,-4.834 0.387,-8.8 0.222,-0.715 1.775,-4.322 2.076,-4.981 0.746,-1.659 1.735,-3.559 2.66,-5.304 1.074,-2.025 2.062,-3.832 2.493,-4.799 1.777,-3.969 1.08,-5.31 1.08,-5.31 0.764,-1.012 1.524,-2.024 2.284,-3.036 0,0 -3.806,0.933 -4.567,3.969 -0.762,3.036 -1.521,1.4 -1.521,4.669 0,3.271 -0.858,5.223 -0.858,5.223 C 13.55,3.659 11.441,4.431 11.34,4.469 8.801,4.933 6.491,6.356 4.208,8.693 1.927,11.026 4.813,5.393 4.813,5.393 4.532,6.164 3.737,7.452 2.909,8.768 2.604,9.254 2.297,9.743 2.008,10.216 c -0.589,0.956 -1.091,1.829 -1.3,2.41 1.05,1.867 0.182,2.917 -0.832,4.239 -0.782,2.142 -0.821,4.688 -0.567,6.557 0.143,-1.102 -1.25,6.312 -1.376,3.659 C -2.203,24.213 -4.556,14.58 -2.566,12.64 0.226,8.905 -0.252,0.47 0,0" />
            </g>
          </g>
        </g>
      </g>
      <g
         style="fill:#1c4828;fill-opacity:0.94238682"
         transform="matrix(1.266605,0,0,-1.9461927,180.29982,429.39014)"
         id="g2048">
        <path
           inkscape:connector-curvature="0"
           id="path2050"
           style="fill:#1c4828;fill-opacity:0.94238682;fill-rule:evenodd;stroke:none"
           d="m 0,0 c 0,0 -0.844,-1.494 -3.987,-5.704 -6.075,-8.144 -4.093,-2.135 -6.75,-5.529 -2.932,-3.748 -6.361,-13.113 -7.497,-14.157 -1.477,-1.359 2.736,10.588 0.523,9.092 -2.215,-1.494 -1.626,-0.134 -4.429,-2.988 -2.803,-2.851 0,1.088 2.51,5.164 2.508,4.071 3.986,3.799 5.313,7.06 1.327,3.259 1.475,4.344 1.475,4.344 0,0 3.543,3.397 4.429,4.618 0.886,1.226 2.067,4.077 2.067,4.077 0,0 -2.657,-3.262 -4.872,-4.483 -2.217,-1.222 -5.167,-2.444 -5.46,-3.938 -0.297,-1.494 -0.886,-2.716 -2.216,-4.889 -1.328,-2.174 0,3.665 -2.213,0 -2.214,-3.666 -3.099,-3.942 -5.461,-6.383 -2.361,-2.446 1.032,-2.855 -2.511,-6.25 -3.541,-3.394 0,-4.345 -4.574,-7.059 -4.576,-2.718 3.1,7.468 -3.543,1.627 -6.641,-5.839 -3.394,-4.211 -8.413,-8.554 -5.019,-4.347 -1.918,-4.753 -7.674,-8.967 -2.19,-1.598 -0.18,1.902 2.825,6.526 1.83,2.817 4.03,6.05 5.876,8.804 3.096,4.611 5.199,7.872 2.909,5.552 -2.467,-2.494 -5.063,-4.726 -7.616,-6.814 -3.561,-2.91 -7.036,-5.542 -9.956,-8.229 -1.491,-1.376 1.448,4.917 4.266,10.831 2.501,5.256 4.904,10.212 4.011,9.228 -0.928,-1.02 -10.545,-12.866 -18.27,-16.052 -4.161,-4.224 -6.422,-9.346 -6.874,-9.386 -3.013,-0.259 1.525,8.17 -1.33,6.032 -0.857,-0.643 -8.485,-5.207 -10.773,-5.519 -2.285,-0.318 6.257,7.067 6.528,7.446 2.669,3.724 -22.239,-12.13 -25.016,-12.246 -5.435,-0.227 -13.677,-2.416 0.847,4.769 -3.28,0.05 -23.678,-2.777 -26.728,-3.835 -2.372,-0.824 -15.221,0.843 -11.166,-1.959 -5.002,-4.065 11.503,-7.24 12.212,-9.724 -9.96,-1.446 29.389,-1.863 32.082,-2.53 2.712,-0.676 22.023,4.693 21.227,4.34 -1.716,-0.764 26.125,1.359 28.636,-0.54 2.509,-1.904 3.484,3.632 5.256,4.312 1.771,0.679 3.452,1.525 7.29,6.008 2.94,3.432 2.935,2.961 4.296,4.628 0.417,0.507 -1.778,-13.636 -0.982,-12.555 1.24,1.687 4.617,14.8 5.726,16.221 1.923,2.465 4.086,7.808 4.832,9.36 1.183,2.446 1.919,0.408 -0.146,-3.665 -2.064,-4.074 -0.591,-2.986 -1.919,-6.383 -1.328,-3.396 -1.772,-2.99 -1.772,-4.754 0,-1.766 -2.315,-9.183 -2.315,-9.183 l 5.762,5.839 c 3.393,1.9 0.541,5.108 2.163,7.554 1.622,2.445 -0.296,-2.777 1.18,-0.603 1.476,2.173 -1.476,4.544 1.033,8.209 1.81,2.641 -0.448,-6.837 1.03,-5.504 0.574,0.515 4.575,11.036 5.317,12.022 2.657,3.531 -1.181,1.63 2.803,5.162 1.773,1.568 2.232,2.389 2.352,3.085 0.147,0.873 -0.235,1.563 0.749,3.3 1.771,3.121 5.314,8.96 5.018,6.243 -0.296,-2.716 -2.097,-18.8 -2.835,-20.567 -0.737,-1.765 1.506,12.15 0.031,8.756 -0.6,-1.385 -2.005,-3.481 -3.438,-5.642 -2.098,-3.149 -4.258,-6.427 -4.084,-7.802 2.066,2.659 -5.307,-15.028 -3.875,-13.865 1.247,1.015 4.272,5.2 6.683,8.501 1.553,2.125 2.852,3.883 3.252,4.188 0.392,0.293 -0.638,-3.684 -1.951,-8.243 -1.531,-5.302 -3.444,-11.392 -3.946,-12.436 0.966,0.516 2.154,1.174 3.376,3.285 0.537,0.931 2.072,0.96 2.605,2.023 1.298,2.585 1.55,7.372 2.511,9.651 1.112,2.638 1.843,4.55 1.843,4.55 0,0 -5.042,-8.174 -4.099,-4.596 0.963,3.674 7.91,19.091 8.06,18.129 0.486,-3.134 0.197,-2.305 1.275,3.988 0.445,2.579 -3.194,6.01 -2.603,7.638 0.59,1.632 0.149,3.803 0.149,3.803 l 0.147,3.259 c 0,0 -0.887,2.038 -1.181,2.309" />
      </g>
      <g
         style="fill:#449155;fill-opacity:0.74485593"
         transform="matrix(1.266605,0,0,-1.9461927,-342.83767,836.53013)"
         id="g2052">
        <g
           style="fill:#449155;fill-opacity:0.74485593"
           clip-path="url(#clipPath2058)"
           id="g2054">
          <g
             style="fill:#449155;fill-opacity:0.74485593"
             id="g2060">
            <g
               style="fill:#449155;fill-opacity:0.74485593"
               id="g2062">
              <path
                 inkscape:connector-curvature="0"
                 id="path2074"
                 style="fill:#449155;fill-opacity:0.74485593;stroke:none"
                 d="m 413.358,242.597 c -0.21,0.203 -0.788,0.28 -1.015,0.396 v 0 c -2.195,1.093 -4.948,-1.636 -4.94,-1.636 v 0 c -0.662,-0.94 -1.325,-1.882 -1.987,-2.826 v 0 c 0,0 -1.083,-0.941 -2.166,-1.33 v 0 c -1.084,-2.161 -1.446,-2.824 -3.431,-2.99 v 0 c -1.988,-0.167 -2.888,-1.496 -2.888,-1.496 v 0 c 0,0 -0.363,-1.163 -1.628,-3.492 v 0 c -1.264,-2.322 -1.445,-0.996 -5.961,-6.479 v 0 c -0.844,-1.029 -3.525,-2.424 -4.382,-3.473 v 0 c -3.719,-4.546 -6.996,-9.324 -6.996,-9.324 v 0 c 3.614,3.156 7.673,5.086 11.283,8.242 v 0 c 0.316,-0.146 0.921,2.932 3.041,3.869 v 0 c 3.069,0.498 0.287,-0.128 -0.98,-2.121 v 0 c -1.262,-1.996 0.745,-2.677 -4.314,-6.002 v 0 c -3.367,-3.943 -4.203,-5.656 -4.971,-7.857 v 0 c 0,0 4.576,4.551 7.465,6.377 v 0 c 0.572,0.278 0.476,0.093 0.379,-0.091 v 0 c -0.096,-0.184 -0.192,-0.368 0.379,-0.091 v 0 c 0,0 0.722,0 3.973,2.492 v 0 c 3.252,2.495 -2.71,-6.98 -2.71,-6.98 v 0 c 0.782,0.498 6.443,5.985 7.227,6.485 v 0 c 0.329,0.081 0.39,-0.084 0.449,-0.251 v 0 c 0.06,-0.166 0.121,-0.332 0.453,-0.249 v 0 c 0.784,0.386 2.647,1.773 3.431,2.16 v 0 c 0,0 1.084,5.153 3.069,6.647 v 0 c 1.989,1.496 -1.081,-3.49 1.087,-4.488 v 0 c 0.031,0.022 0.335,-0.249 0.636,-0.519 v 0 c 0.302,-0.269 0.602,-0.538 0.632,-0.517 v 0 c 1.868,1.233 1.838,0.727 2.704,1.036 v 0 c -0.481,-0.663 -0.964,-1.329 -1.445,-1.993 v 0 c 0,-0.066 -1.875,-1.22 -2.157,-3.602 v 0 c -0.416,-3.539 -1.2,-2.809 -1.752,-3.346 v 0 c -0.346,-0.458 -0.145,0.872 0.065,2.201 v 0 c 0.218,1.385 0.443,2.769 0.064,2.135 v 0 c -1.604,-2.683 -5.011,-11.313 -5.24,-11.669 v 0 c 0.141,0.157 1.73,1.929 4.144,4.309 v 0 c 2.527,2.492 4.152,1.661 4.152,1.661 v 0 c 0,0 0.132,1.983 2.771,3.898 v 0 c 0.882,0.639 2.681,1.512 4.092,1.256 v 0 c 3.679,2.847 -0.581,4.953 1.503,6.941 v 0 c 0.301,-0.998 2.563,-3.634 2.862,-4.63 v 0 c 0.724,-0.833 -0.031,-2.478 0.696,-3.309 v 0 c 0,0 0.176,-1.328 0.176,-2.992 v 0 c 0,-1.662 0,-0.996 0.905,-3.823 v 0 c 0.902,-2.825 0,-3.155 1.082,-4.984 v 0 c 1.446,-2.327 2.365,-3.431 2.365,-3.431 v 0 c 6.142,-3.06 8.435,-2.205 4.319,-0.227 v 0 c -0.963,0.556 -0.662,1.439 -1.627,1.997 v 0 c -0.255,-0.355 -2.396,1.593 -1.803,6.149 v 0 c 0.073,0.873 0.266,0.811 0.48,0.748 v 0 c 0.381,-0.111 0.827,-0.223 0.781,4.903 v 0 c 1.085,4.817 -1.148,-0.755 -1.148,-0.755 v 0 c -0.121,1.276 -0.535,5.128 -0.656,6.404 v 0 c 0.299,1.438 -3.226,5.043 -2.937,6.49 v 0 c 0.057,-0.175 3.21,-3.966 5.425,-5.536 v 0 c 1.032,-0.732 2.465,-0.903 4.014,-2.614 v 0 c 4.695,-5.487 0.721,-3.657 2.71,-4.821 v 0 c 1.985,-1.166 1.624,-0.5 3.792,-2.162 v 0 c 1.898,-1.506 0.959,-0.427 5.97,-2.452 v 0 c 0.52,-0.207 0.957,-2.464 1.614,-2.7 v 0 c 3.133,-1.246 4.671,-1.296 5.284,-1.392 v 0 c 1.909,-0.299 1.515,-0.146 2.321,-0.434 v 0 c 0.875,-0.313 1.476,-0.235 1.648,-0.408 v 0 c 6.879,-6.956 1.165,1.729 -3.671,3.244 v 0 c -1.804,1.663 -3.774,1.318 -3.774,1.318 v 0 c -0.783,0.886 -1.564,1.772 -2.351,2.657 v 0 c 0,0 -0.202,-0.265 -2.009,1.064 v 0 c -3.898,2.351 -4.742,7.084 -7.476,10.769 v 0 c -0.364,0.776 -0.805,0.983 -1.169,1.758 v 0 c 0,0 -1.494,1.41 0.622,0.332 v 0 c 0.731,0.365 2.933,-1.242 5.008,-2.85 v 0 c 3.344,-2.59 6.362,-5.179 2.383,0.484 v 0 c -0.258,0.368 -1.133,1.827 -1.436,2.193 v 0 c -1.335,1.602 -4.929,4.556 -6.5,5.43 v 0 c 3.38,0.654 8.954,-4.388 12.928,-6.381 v 0 c 3.045,-2.742 4.936,-4.501 7.137,-6.382 v 0 c 1.322,-1.13 2.06,-2.941 5.172,-3.245 v 0 c 0.741,-0.479 5.618,-3.064 5.97,-3.184 v 0 c 1.959,-0.653 -4.252,4.033 -8.089,8.942 v 0 c -1.247,1.596 -1.44,3.374 -3.187,2.995 v 0 c -0.173,0.556 -1.52,2.195 -3.028,1.54 v 0 c -1.806,2.325 -4.156,1.825 -7.949,5.151 v 0 c -0.868,1.973 -3.792,5.366 -6.843,4.965 v 0 c -2.456,0.992 -2.859,2.808 -5.259,4.839 v 0 c -4.516,3.823 -4.175,2.245 -6.163,3.408 v 0 c -1.985,1.164 -1.308,1.019 -3.116,2.18 v 0 c -1.805,1.163 -2.36,1.471 -2.36,1.471 v 0 c 0,0 -1.184,0.42 -2.99,0.919 v 0 c -0.516,0.143 -0.87,0.21 -1.172,0.21 v 0 c -0.754,0 -1.182,-0.419 -2.987,-1.131 m 9.532,-20.171 c 0,0 0,0 0,0 m -22.168,-20.623 c 0.002,0 0.006,0.004 0.01,0.012 v 0 c -0.006,-0.008 -0.01,-0.012 -0.01,-0.012" />
            </g>
          </g>
        </g>
      </g>
      <g
         style="fill:#449155;fill-opacity:1"
         transform="matrix(1.266605,0,0,-1.9461927,-342.83767,836.53013)"
         id="g2076">
        <g
           style="fill:#449155;fill-opacity:1"
           clip-path="url(#clipPath2082)"
           id="g2078">
          <g
             style="fill:#449155;fill-opacity:1"
             transform="translate(420.8433,241.3848)"
             id="g2084">
            <path
               inkscape:connector-curvature="0"
               id="path2086"
               style="fill:#449155;fill-opacity:1;fill-rule:evenodd;stroke:none"
               d="M 0,0 C 0,0 1.936,0.1 5.31,-2.629 3.943,-2.805 1.772,-2.307 4.431,-3.801 7.423,-4.205 8.827,-6.002 10.45,-5.46 c 1.703,-1.686 1.803,-1.622 3.425,-2.978 0.712,-0.594 2.545,-1.782 2.77,-2.403 -0.386,-0.103 -1.146,-0.974 -1.146,-0.974 -0.294,-0.905 -0.148,-0.317 -0.443,-1.221 0,0 1.475,1.221 3.102,0.406 2.297,0.431 6.269,-3.605 8.078,-5.03 -3.919,1.829 -6.062,3.385 -7.537,2.431 -1.479,-0.949 -3.806,-0.033 -3.494,-0.114 0.332,-0.444 1.19,-0.524 1.614,-0.821 1.269,-0.883 2.229,-1.437 2.229,-1.437 0.493,-0.5 3.165,-4.494 3.659,-4.992 0,0 -5.29,4.532 -8.387,5.889 -3.102,1.361 -2.362,1.767 -3.84,2.988 -1.476,1.222 2.658,0.816 0,2.853 -2.656,2.036 -1.622,0.271 -3.837,1.901 -2.212,1.631 -5.165,2.037 -3.394,0.815 1.771,-1.222 1.474,-1.901 3.394,-2.991 1.918,-1.084 -1.609,0.08 -3.527,1.711 -1.92,1.628 -2.818,1.823 -2.818,1.823 0,0 -0.147,1.086 -1.772,2.583 -1.623,1.492 -3.395,4.615 -2.509,2.306 0.886,-2.306 2.361,-2.174 2.361,-4.076 0,-1.9 0.442,-3.257 0.442,-3.257 0.738,-0.68 1.478,-1.358 2.215,-2.038 0.393,-0.768 0.788,-1.538 1.18,-2.309 0.837,-0.407 1.673,-0.813 2.508,-1.221 1.084,-0.454 2.168,-0.906 3.248,-1.359 0,0 0.149,-0.408 1.624,-1.36 1.477,-0.948 1.707,-0.733 3.184,-1.686 -0.297,1.801 0.38,0.554 0.861,0.263 1.059,-0.641 1.902,-2.418 1.902,-2.418 0,0 6.286,-8.095 6.07,-9.654 -0.006,0.381 2.576,-2.827 0.921,-1.779 -0.755,0.476 -5.231,4.39 -6.21,5.434 -0.74,0.793 -0.669,1.867 -1.513,3.21 -1.361,2.167 -2.09,-0.155 -2.811,0.185 -2.657,1.359 2.067,-1.775 0,-1.233 -0.515,0.1 -3.72,6.439 -4.209,6.849 -1.463,1.221 -2.965,2.268 -2.965,2.303 0,0 0.383,-0.791 -3.016,2.062 -0.447,0.332 -0.582,0.897 -0.859,1.06 -0.254,0.155 -1.358,-0.182 -1.413,-0.067 0.706,1.176 -0.391,1.178 -1.613,1.54 -0.132,0.341 0.302,0.789 0.2,0.939 -0.294,0.438 -2.467,3.076 -2.666,3.074 -0.439,-0.006 1.476,-3.622 1.98,-4.769 0.214,-0.588 -0.097,-1.566 0.462,-2.138 0.133,-0.137 0.933,-1.179 1.205,-1.19 0.4,-0.017 0.3,1.011 0.478,0.841 0.262,-0.314 0.319,-0.906 0.61,-1.339 0.295,-0.429 0.825,-0.701 1.105,-1.085 1.327,-1.902 1.097,-2.518 1.097,-2.518 -0.02,-0.43 0.08,-1.57 1.146,-3.327 0.127,-0.209 -0.146,-0.631 -0.057,-0.832 0.38,-0.883 0.427,-1.634 0.479,-1.799 1.844,-5.586 0.13,-1.646 -0.123,-1.823 -0.42,-0.293 -2.021,5.325 -2.67,6.173 -0.168,0.616 -0.25,1.445 -0.398,1.92 -1.222,3.889 -2.526,3.166 -2.767,3.278 -0.811,0.327 -2.844,-3.956 -2.844,-3.956 0,0 -1.242,-3.749 -0.505,-0.897 0.553,2.136 0.7,3.173 0.804,4.219 0.036,0.349 0.744,0.45 0.557,0.929 -0.739,1.9 0.345,0.055 0.198,2.227 -0.149,2.175 0.33,0.276 0.184,1.771 -0.147,1.494 -1.416,2.112 -1.416,3.606 0,1.494 1.329,0.543 0.148,2.037 -1.18,1.494 -1.476,2.445 -1.034,2.988 0.444,0.542 -1.556,4.736 -1.556,4.736 0,0 1.852,-0.524 3.181,-1.07 1.327,-0.541 1.708,-0.599 1.708,-0.599 0,0 0.062,-1.166 1.982,-1.845 0.28,-0.103 1.901,-0.335 1.911,-0.211 0.029,0.452 -1.639,0.888 -2.347,1.621 C -1.888,-0.416 -2.569,0.598 -3.192,0.58 -5.258,0.444 -7.38,1.228 -7.38,1.228 -5.706,1.361 -6.134,1.94 -3.688,1.77 -3.688,1.77 0,-0.271 0,0" />
          </g>
          <g
             style="fill:#449155;fill-opacity:1"
             transform="translate(399.2261,233.7412)"
             id="g2088">
            <path
               inkscape:connector-curvature="0"
               id="path2090"
               style="fill:#449155;fill-opacity:1;fill-rule:nonzero;stroke:none"
               d="m 0,0 c 0,0 -1.284,0.182 -2.223,-1.502 -0.939,-1.686 -1.729,-3.779 -1.729,-3.779 0,0 0.492,0.321 -0.496,-0.638 -0.987,-0.956 -3.209,-2.14 -3.656,-3.187 -0.445,-1.048 2.719,1.959 3.954,2.369 1.235,0.408 2.223,1.412 3.063,1.912 0.839,0.5 -0.691,1.321 0.791,2.229 1.482,0.91 0.94,0.592 2.521,1.276 1.581,0.68 2.224,0.456 1.186,-1.046 -1.037,-1.505 -0.643,-1.32 -1.385,-2.14 -0.741,-0.819 -0.939,-0.413 -2.274,-2.277 -1.333,-1.866 -2.171,-1.596 -2.569,-3.188 -0.394,-1.593 -1.927,-2.456 -2.37,-3.05 -0.447,-0.591 3.705,3.28 5.435,4.552 1.73,1.274 1.433,2.004 2.817,3.006 1.384,1.003 2.174,1.821 3.162,2.551 0.989,0.728 0.348,1.456 1.979,2.774 1.628,1.322 1.925,2.596 2.419,3.688 0.494,1.096 0.693,-2.594 -0.098,-3.958 C 9.737,-1.777 8.797,-1.64 8.303,-2.64 7.809,-3.642 7.019,-4.735 6.919,-4.96 c -0.1,-0.231 2.469,2.002 3.706,2.912 1.236,0.908 1.729,2.364 1.977,3.412 0.248,1.048 -0.445,1.824 -0.099,2.778 0.347,0.956 -0.74,1.639 0.247,2.277 0.99,0.638 1.138,1.412 0.395,1.685 -0.741,0.271 -2.223,-0.411 -1.974,0 0.245,0.411 0.937,1.365 0.147,1.183 C 10.527,9.104 8.944,8.423 8.303,7.559 7.662,6.689 8.797,6.737 7.958,5.644 7.116,4.552 8.598,4.689 7.958,4.052 7.315,3.417 6.525,3.825 5.535,3.55 4.547,3.277 4.102,4.279 4.004,2.594 3.906,0.912 3.906,0.818 3.016,0.226 2.125,-0.364 0.841,-0.456 -0.147,-1.094 -1.136,-1.729 -2.223,-2.64 -2.223,-2.64 c 0,0 0.642,1.456 1.333,1.865 C -0.196,-0.364 -0.098,-0.09 0,0" />
          </g>
        </g>
      </g>
      <g
         transform="matrix(1.266605,0,0,-1.9461927,-342.83767,836.53013)"
         id="g2092">
        <g
           clip-path="url(#clipPath2098)"
           id="g2094">
          <g
             id="g2100">
            <g
               id="g2102">
              <path
                 inkscape:connector-curvature="0"
                 id="path2114"
                 style="fill:url(#linearGradient2112);stroke:none"
                 d="m 432.475,197.68 c 0.992,-0.995 1.123,-1.953 2.363,-1.953 v 0 c 1.236,0 0.676,-1.913 1.351,-2.583 v 0 c 0.672,-0.68 1.801,-1.803 1.801,-3.041 v 0 c 0,-1.237 0.784,-2.179 1.979,-2.179 v 0 c 1.196,0 1.758,-1.757 1.758,-1.297 v 0 c 0,0.462 -2.154,3.486 -2.66,3.992 v 0 c -0.508,0.506 -0.829,2.381 -0.829,3.329 v 0 c 0,0.949 -1.392,0.443 -2.183,2.1 v 0 c -0.793,1.653 -2.498,1.632 -2.498,1.632 v 0 c 0,2.065 -2.347,3.434 -2.347,3.434 v 0 c 0,0 0.272,-2.44 1.265,-3.434" />
            </g>
          </g>
        </g>
      </g>
      <g
         style="fill:#1c4828;fill-opacity:1"
         transform="matrix(1.266605,0,0,-1.9461927,-342.83767,836.53013)"
         id="g2116">
        <g
           style="fill:#1c4828;fill-opacity:1"
           clip-path="url(#clipPath2122)"
           id="g2118">
          <g
             style="fill:#1c4828;fill-opacity:1"
             id="g2124">
            <g
               style="fill:#1c4828;fill-opacity:1"
               id="g2126">
              <path
                 inkscape:connector-curvature="0"
                 id="path2138"
                 style="fill:#1c4828;fill-opacity:1;stroke:none"
                 d="m 396.88,207.694 c 0,0 -0.797,-0.097 -1.64,-0.94 v 0 c -0.844,-0.843 -0.526,-2.142 -0.844,-2.461 v 0 c -0.318,-0.316 -0.282,0.492 -1.127,0.492 v 0 c -0.841,0 -0.701,0.14 -1.825,-0.984 v 0 c -1.126,-1.126 -0.326,-1.759 -1.126,-2.562 v 0 c -0.802,-0.798 -1.195,-1.193 -1.871,-1.868 v 0 l -0.676,-0.675 c 0,0 -0.655,-2.556 -1.315,-3.213 v 0 c -0.66,-0.66 2.033,0.657 2.952,1.576 v 0 c 0.919,0.919 0.094,0.808 0.769,1.481 v 0 c 0.675,0.676 0.899,1.126 1.349,2.362 v 0 c 0.26,0.717 0.892,1.541 1.259,1.989 v 0 c 0.01,-0.182 1.029,0.166 0.602,-1.474 v 0 c -0.511,-1.974 -2.101,-2.634 -0.977,-2.634 v 0 c 1.127,0 1.366,0.66 2.042,1.784 v 0 c 0.675,1.125 0,1.911 0.337,2.251 v 0 c 0.338,0.336 0.451,1.236 1.238,2.021 v 0 c 0.787,0.789 1.292,1.295 2.249,2.252 v 0 c 0.957,0.954 1.546,1.23 2.25,1.933 v 0 c 0.704,0.704 3.667,3.507 3.667,3.507 v 0 c 0,0 -8.313,-3.836 -7.313,-4.837" />
            </g>
          </g>
        </g>
      </g>
      <g
         style="fill:#4f7942;fill-opacity:1"
         transform="matrix(1.266605,0,0,-1.9461927,339.11157,523.83166)"
         id="g2148">
        <path
           inkscape:connector-curvature="0"
           id="path2150"
           style="fill:#4f7942;fill-opacity:1;fill-rule:evenodd;stroke:none"
           d="m 0,0 c -0.441,10.159 -2.812,19.835 -6.226,29.087 0.066,-4.638 0.309,-9.365 -0.594,-13.835 -1.183,1.45 -2.137,3.755 -2.882,5.655 0.102,-1.601 -0.324,-3.875 -0.478,-5.099 -2.941,8.354 -5.685,16.823 -8.976,25.008 0.213,-9.114 -0.413,-18.321 -1.485,-27.176 -1.582,3.388 -1.816,7.733 -2.197,11.466 -2.091,-1.785 -2.506,-5.629 -2.441,-8.551 -1.391,3.466 -2.34,7.994 -4.058,10.921 -0.351,-5.337 0.128,-10.87 -0.23,-16.206 -2.317,6.159 -0.827,17.753 -4.949,22.052 -0.384,-6.434 0.524,-14.136 -0.994,-20.307 -0.959,2.639 -1.125,5.781 -2.066,8.476 -1.042,-3.046 -1.814,-6.936 -1.772,-10.323 -4.747,3.349 -4.309,11.815 -6.147,17.357 0.068,-4.574 0.006,-9.152 0.035,-13.724 -1.697,7.277 -2.811,16.8 -6.612,23.117 -1.469,-8.433 0.294,-18.718 -3.213,-26.499 -0.683,3.398 -0.985,6.912 -2.208,10.13 -0.516,-3.676 -0.871,-8.178 -2.947,-11.122 -1.613,2.021 -1.852,5.059 -2.742,7.54 -0.72,-1.921 -1.198,-4.606 -1.783,-6.228 -0.35,1.67 -1.535,3.333 -2.079,4.618 -0.579,-1.94 -1.57,-3.907 -2.698,-5.319 -0.384,0.628 -1.668,1.665 -1.978,2.375 0.233,-1.843 -0.509,-3.509 -0.734,-5.172 -1.385,1.771 -2.061,4.994 -3.097,7.513 -0.36,-0.893 -1.579,-2.381 -1.812,-3.881 -1.968,4.751 -3.034,10.22 -4.918,15.044 -1.773,-5.065 -1.161,-11.973 -2.042,-17.513 -1.437,2.18 -2.005,6.358 -2.887,8.736 -0.019,-2.307 -0.554,-4.771 -1.234,-6.954 -4.032,1.352 -4.748,9.731 -7.584,13.257 -0.143,-3.155 -0.099,-6.438 -0.053,-9.642 -2.828,8.547 -5.228,17.356 -7.802,26.027 0.138,-9.255 -0.089,-18.516 0.053,-27.769 -0.651,2.214 -1.08,4.544 -1.679,6.804 -2.346,-2.277 -2.103,-8.518 -5.467,-9.289 -1.33,3.249 -2.029,6.778 -3.63,9.789 -1.225,-3.072 -1.627,-6.942 -3.722,-9.309 -2.246,2.61 -2.748,7.196 -4.656,10.156 -0.747,-3.132 -0.841,-7.16 -1.644,-10.654 -2.483,2.259 -1.606,7.915 -4.029,10.834 -0.747,-2.915 -1.364,-6.788 -3.504,-8.477 -1.027,2.177 -1.619,4.759 -3.112,6.353 -0.105,-2.772 -0.289,-5.61 -1.654,-7.951 -0.36,1.428 -1.302,2.956 -1.575,4.325 0.13,-2.249 -0.675,-2.996 -1.524,-4.602 -0.256,0.582 -1.262,1.851 -1.436,2.379 -0.146,-0.554 -0.136,-1.096 -0.203,-1.666 -2.095,1.6 -2.131,5.367 -2.608,8.116 -0.408,-1.912 -0.337,-5.343 -1.424,-7.396 -0.308,0.848 -0.905,1.657 -1.176,2.701 -0.311,-1.713 -1.252,-3.552 -2.467,-4.578 -0.452,0.921 -1.657,2.092 -1.951,2.821 -0.032,-1.6 -0.845,-2.626 -1.036,-3.415 -0.618,3.312 -1.14,6.562 -2.192,9.796 0.247,-2.335 0.197,-4.7 -0.622,-6.74 -3.331,6.244 -1.968,15.052 -5.463,21.366 -0.48,-7.704 0.229,-16.965 -1.5,-24.304 -1.192,2.813 -1.448,6.129 -2.309,9.148 -1.629,-1.692 -1.796,-7.469 -4.551,-7.582 -3.199,-0.132 -4.291,7.279 -5.721,9.807 0.173,-3.442 0.396,-7.331 -1.885,-9.721 -0.982,1.832 -1.727,3.756 -2.624,5.639 -0.07,-2.153 -0.397,-4.423 -1.525,-5.668 -2.252,4.915 -3.937,10.73 -4.789,16.198 0.022,-3.528 -0.179,-31.011 -5.571,-17.453 -0.254,-11.108 -5.945,-1.97 -7.865,2.795 -0.121,-1.928 -0.874,-3.936 -1.927,-5.052 -0.908,1.843 -1.894,3.839 -3.127,5.186 0.071,-2.377 -0.466,-4.618 -2.167,-5.875 -2.302,2.071 -2.734,5.777 -5.063,7.632 0.194,-2.166 0.136,-4.439 -1.113,-5.877 -0.957,1.074 -2.458,1.787 -3.15,3.375 0.421,-7.235 -3.205,0.376 -4.108,3.092 -2.076,6.237 -3.194,13.305 -5.824,19.204 -1.99,-8.216 0.983,-17.744 0.035,-26.05 -1.177,3.477 -2.211,8.355 -4.57,10.978 -1.378,-2.895 -1.736,-7.029 -2.648,-10.44 -3.208,-0.291 -4.843,5.963 -6.538,8.525 0.378,-9.77 -1.54,-7.5 -6.213,-2.765 0.109,-2.21 -0.106,-4.299 -1.098,-5.931 -4.57,5.715 -4.957,15.902 -8.303,22.77 0.003,-4.765 1.168,-9.726 1.468,-14.355 -2.444,8.267 -4.424,17.092 -6.639,25.444 0.162,-10.81 1.835,-22.388 1.073,-33.014 -0.432,2.573 -1.796,5.418 -3.539,6.827 -0.199,-3.269 0.01,-6.648 -0.195,-9.911 -1.411,2.042 -2.072,5.028 -4.068,6.369 -0.747,-2.421 -0.42,-5.387 -0.565,-8.068 -0.874,-0.506 -0.667,0.772 -0.946,0.509 C -271.27,2.926 0,0 0,0" />
      </g>
      <g
         style="fill:#0b6623;fill-opacity:1"
         transform="matrix(1.266605,0,0,-1.9461927,-3.695575,523.83166)"
         id="g2152">
        <path
           inkscape:connector-curvature="0"
           id="path2154"
           style="fill:#0b6623;fill-opacity:1;fill-rule:evenodd;stroke:none"
           d="M 0,0 C 0.45,10.159 2.863,19.835 6.339,29.087 6.272,24.449 6.025,19.722 6.944,15.252 c 1.206,1.45 2.177,3.755 2.935,5.655 -0.104,-1.601 0.331,-3.875 0.487,-5.099 2.996,8.354 5.789,16.823 9.142,25.008 -0.218,-9.114 0.419,-18.321 1.511,-27.176 1.61,3.388 1.849,7.733 2.237,11.466 2.13,-1.785 2.551,-5.629 2.485,-8.551 1.418,3.466 2.384,7.994 4.132,10.921 0.359,-5.337 -0.13,-10.87 0.236,-16.206 2.358,6.159 0.839,17.753 5.037,22.052 0.394,-6.434 -0.533,-14.136 1.014,-20.307 0.977,2.639 1.146,5.781 2.103,8.476 1.062,-3.046 1.849,-6.936 1.805,-10.323 4.834,3.349 4.388,11.815 6.26,17.357 -0.07,-4.574 -0.006,-9.152 -0.036,-13.724 1.728,7.277 2.864,16.8 6.731,23.117 1.497,-8.433 -0.297,-18.718 3.274,-26.499 0.695,3.398 1.002,6.912 2.249,10.13 0.524,-3.676 0.887,-8.178 3.001,-11.122 1.642,2.021 1.885,5.059 2.791,7.54 0.735,-1.921 1.221,-4.606 1.816,-6.228 0.356,1.67 1.563,3.333 2.117,4.618 0.592,-1.94 1.601,-3.907 2.748,-5.319 0.391,0.628 1.699,1.665 2.013,2.375 -0.236,-1.843 0.519,-3.509 0.748,-5.172 1.411,1.771 2.099,4.994 3.155,7.513 0.365,-0.893 1.606,-2.381 1.844,-3.881 2.003,4.751 3.089,10.22 5.01,15.044 1.804,-5.065 1.181,-11.973 2.079,-17.513 1.462,2.18 2.041,6.358 2.939,8.736 0.018,-2.307 0.562,-4.771 1.256,-6.954 4.105,1.352 4.836,9.731 7.725,13.257 0.144,-3.155 0.1,-6.438 0.053,-9.642 2.88,8.547 5.324,17.356 7.944,26.027 -0.14,-9.255 0.09,-18.516 -0.053,-27.769 0.663,2.214 1.1,4.544 1.709,6.804 2.391,-2.277 2.142,-8.518 5.567,-9.289 1.353,3.249 2.067,6.778 3.698,9.789 1.246,-3.072 1.654,-6.942 3.788,-9.309 2.287,2.61 2.798,7.196 4.743,10.156 0.759,-3.132 0.856,-7.16 1.673,-10.654 2.528,2.259 1.636,7.915 4.103,10.834 0.761,-2.915 1.388,-6.788 3.568,-8.477 1.046,2.177 1.648,4.759 3.169,6.353 0.107,-2.772 0.294,-5.61 1.683,-7.951 0.368,1.428 1.328,2.956 1.607,4.325 -0.134,-2.249 0.685,-2.996 1.55,-4.602 0.26,0.582 1.284,1.851 1.461,2.379 0.15,-0.554 0.14,-1.096 0.207,-1.666 2.135,1.6 2.171,5.367 2.657,8.116 0.415,-1.912 0.342,-5.343 1.45,-7.396 0.313,0.848 0.921,1.657 1.197,2.701 0.316,-1.713 1.275,-3.552 2.513,-4.578 0.459,0.921 1.687,2.092 1.987,2.821 0.032,-1.6 0.859,-2.626 1.054,-3.415 0.629,3.312 1.16,6.562 2.232,9.796 -0.251,-2.335 -0.201,-4.7 0.633,-6.74 3.393,6.244 2.006,15.052 5.564,21.366 0.488,-7.704 -0.233,-16.965 1.527,-24.304 1.213,2.813 1.474,6.129 2.352,9.148 1.659,-1.692 1.828,-7.469 4.633,-7.582 3.258,-0.132 4.37,7.279 5.825,9.807 -0.175,-3.442 -0.403,-7.331 1.921,-9.721 1.002,1.832 1.759,3.756 2.671,5.639 0.072,-2.153 0.405,-4.423 1.553,-5.668 2.293,4.915 4.009,10.73 4.877,16.198 -0.022,-3.528 0.184,-31.011 5.673,-17.453 0.259,-11.108 6.056,-1.97 8.01,2.795 0.122,-1.928 0.891,-3.936 1.962,-5.052 0.926,1.843 1.929,3.839 3.182,5.186 -0.071,-2.377 0.476,-4.618 2.208,-5.875 2.345,2.071 2.784,5.777 5.155,7.632 -0.196,-2.166 -0.136,-4.439 1.135,-5.877 0.974,1.074 2.502,1.787 3.207,3.375 -0.428,-7.235 3.263,0.376 4.183,3.092 2.113,6.237 3.253,13.305 5.931,19.204 2.026,-8.216 -1.002,-17.744 -0.035,-26.05 1.198,3.477 2.251,8.355 4.653,10.978 1.402,-2.895 1.768,-7.029 2.696,-10.44 3.268,-0.291 4.932,5.963 6.658,8.525 -0.385,-9.77 1.568,-7.5 6.325,-2.765 -0.11,-2.21 0.11,-4.299 1.119,-5.931 4.655,5.715 5.048,15.902 8.456,22.77 -0.005,-4.765 -1.189,-9.726 -1.496,-14.355 2.489,8.267 4.507,17.092 6.761,25.444 -0.164,-10.81 -1.868,-22.388 -1.092,-33.014 0.439,2.573 1.829,5.418 3.603,6.827 0.204,-3.269 -0.011,-6.648 0.199,-9.911 1.437,2.042 2.111,5.028 4.144,6.369 0.759,-2.421 0.427,-5.387 0.574,-8.068 0.889,-0.506 0.68,0.772 0.964,0.509 C 276.236,2.926 0,0 0,0" />
      </g>
    </g>
  </g>
  <g
     inkscape:groupmode="layer"
     id="layer9"
     inkscape:label="Shadows-right"
     style="display:inline;opacity:1"
     transform="translate(0,-327.39591)">
    <rect
       style="display:inline;opacity:1;fill:url(#linearGradient2155-8-7-4);fill-opacity:1;fill-rule:nonzero;stroke:none;stroke-width:0.08143988;stroke-miterlimit:4;stroke-dasharray:0.65151904, 0.65151904;stroke-dashoffset:0;stroke-opacity:1"
       id="rect2145-7-3-2"
       width="63.897251"
       height="242.58723"
       x="-169.90417"
       y="-418.86176"
       transform="scale(-1)" />
  </g>
  <g
     inkscape:groupmode="layer"
     id="layer10"
     inkscape:label="Shadows-right-2"
     style="display:inline"
     transform="translate(0,-327.39591)">
    <rect
       style="display:inline;opacity:1;fill:url(#linearGradient2155-8-4);fill-opacity:1;fill-rule:nonzero;stroke:none;stroke-width:0.06920172;stroke-miterlimit:4;stroke-dasharray:0.55361367, 0.55361367;stroke-dashoffset:0;stroke-opacity:1"
       id="rect2145-7-5"
       width="46.136173"
       height="242.58723"
       x="124.08638"
       y="-418.86176"
       transform="scale(1,-1)" />
    <rect
       style="opacity:1;fill:#1d2951;fill-opacity:1;fill-rule:nonzero;stroke:none;stroke-width:0.10188022;stroke-miterlimit:4;stroke-dasharray:0.81504176, 0.81504176;stroke-dashoffset:0;stroke-opacity:1"
       id="rect2481"
       width="15.12844"
       height="7.1860094"
       x="155.09393"
       y="176.58011" />
  </g>
  <g
     inkscape:groupmode="layer"
     id="layer8"
     inkscape:label="Shadows-center-2"
     style="display:inline"
     transform="translate(0,-327.39591)">
    <rect
       style="display:inline;opacity:1;fill:url(#linearGradient2155-8-7-0-6);fill-opacity:1;fill-rule:nonzero;stroke:none;stroke-width:0.0479883;stroke-miterlimit:4;stroke-dasharray:0.38390641, 0.38390641;stroke-dashoffset:0;stroke-opacity:1"
       id="rect2145-7-3-4-2"
       width="22.185986"
       height="242.58723"
       x="83.837677"
       y="-418.86908"
       transform="scale(1,-1)" />
  </g>
  <g
     inkscape:groupmode="layer"
     id="layer5"
     inkscape:label="Shadows-center"
     style="display:inline"
     transform="translate(0,-327.39591)">
    <rect
       style="display:inline;opacity:1;fill:url(#linearGradient2155-8-7-0);fill-opacity:1;fill-rule:nonzero;stroke:none;stroke-width:0.0479883;stroke-miterlimit:4;stroke-dasharray:0.38390641, 0.38390641;stroke-dashoffset:0;stroke-opacity:1"
       id="rect2145-7-3-4"
       width="22.185986"
       height="242.58723"
       x="-84.442421"
       y="-418.86176"
       transform="scale(-1)" />
  </g>
  <g
     inkscape:groupmode="layer"
     id="layer7"
     inkscape:label="Shadows-left-2"
     style="display:inline"
     transform="translate(0,-327.39591)">
    <rect
       style="display:inline;opacity:1;fill:url(#linearGradient2155-8-7);fill-opacity:1;fill-rule:nonzero;stroke:none;stroke-width:0.08143988;stroke-miterlimit:4;stroke-dasharray:0.65151904, 0.65151904;stroke-dashoffset:0;stroke-opacity:1"
       id="rect2145-7-3"
       width="63.897251"
       height="242.58723"
       x="-1.6272757"
       y="-418.86176"
       transform="scale(1,-1)" />
  </g>
  <g
     inkscape:groupmode="layer"
     id="layer4"
     inkscape:label="Shadows-left"
     style="display:inline"
     transform="translate(0,-327.39591)">
    <rect
       style="display:inline;opacity:1;fill:url(#linearGradient2155-8);fill-opacity:1;fill-rule:nonzero;stroke:none;stroke-width:0.06920172;stroke-miterlimit:4;stroke-dasharray:0.55361366, 0.55361366;stroke-dashoffset:0;stroke-opacity:1"
       id="rect2145-7"
       width="46.136173"
       height="242.58723"
       x="-44.508896"
       y="-418.86176"
       transform="scale(-1)" />
    <rect
       style="display:inline;opacity:1;fill:#1d2951;fill-opacity:1;fill-rule:nonzero;stroke:none;stroke-width:0.10188022;stroke-miterlimit:4;stroke-dasharray:0.81504176, 0.81504176;stroke-dashoffset:0;stroke-opacity:1"
       id="rect2481-8"
       width="15.12844"
       height="7.1860094"
       x="-1.6272757"
       y="176.58011" />
  </g>
  <g
     inkscape:groupmode="layer"
     id="layer6"
     inkscape:label="Text"
     style="display:inline"
     transform="translate(0,-327.39591)">
    <g
       id="g36"
       transform="matrix(0.68536744,0,0,-0.68536744,-136.51035,75.288261)" />
    <text
       xml:space="preserve"
       style="font-style:normal;font-variant:normal;font-weight:bold;font-stretch:normal;font-size:12.34722233px;line-height:1.25;font-family:'Fira Sans';-inkscape-font-specification:'Fira Sans, Bold';font-variant-ligatures:normal;font-variant-caps:normal;font-variant-numeric:normal;font-feature-settings:normal;text-align:start;writing-mode:lr-tb;text-anchor:start;opacity:1;fill:#fce205;fill-opacity:1;stroke:none;stroke-width:0.10188022;stroke-miterlimit:4;stroke-dasharray:0.81504176, 0.81504176;stroke-dashoffset:0;stroke-opacity:1"
       x="70.408035"
       y="379.57416"
       id="text5489"><tspan
         sodipodi:role="line"
         id="tspan5487"
         x="70.408035"
         y="379.57416"
         style="font-style:normal;font-variant:normal;font-weight:bold;font-stretch:normal;font-size:12.34722233px;font-family:'Fira Sans';-inkscape-font-specification:'Fira Sans, Bold';font-variant-ligatures:normal;font-variant-caps:normal;font-variant-numeric:normal;font-feature-settings:normal;text-align:start;writing-mode:lr-tb;text-anchor:start;fill:#fce205;fill-opacity:1;stroke-width:0.10188022">Licht</tspan></text>
    <text
       xml:space="preserve"
       style="font-style:normal;font-variant:normal;font-weight:bold;font-stretch:normal;font-size:12.34722233px;line-height:1.25;font-family:'Fira Sans';-inkscape-font-specification:'Fira Sans, Bold';font-variant-ligatures:normal;font-variant-caps:normal;font-variant-numeric:normal;font-feature-settings:normal;text-align:start;writing-mode:lr-tb;text-anchor:start;display:inline;opacity:1;fill:#ffffff;fill-opacity:1;stroke:none;stroke-width:0.09312101;stroke-miterlimit:4;stroke-dasharray:0.7449681, 0.7449681;stroke-dashoffset:0;stroke-opacity:1"
       x="19.512691"
       y="353.50961"
       id="text4614"><tspan
         sodipodi:role="line"
         id="tspan1125"
         x="19.512691"
         y="353.50961">Sommerakademie 2019</tspan></text>
  </g>
  <g
     inkscape:groupmode="layer"
     id="layer2"
     inkscape:label="Spotlights"
     style="display:inline"
     transform="translate(0,-327.39591)">
    <g
       id="g1115"
       transform="translate(-24.341676,1.0583333)">
      <rect
         transform="matrix(-0.50698913,0.86195245,0.86195243,0.50698917,0,0)"
         y="195.45306"
         x="264.96954"
         height="12.240491"
         width="18.33844"
         id="rect1915-4"
         style="opacity:1;fill:#565656;fill-opacity:1;stroke:none;stroke-width:0.02708444;stroke-miterlimit:4;stroke-dasharray:0.21667552, 0.21667552;stroke-dashoffset:0;stroke-opacity:1" />
      <ellipse
         transform="matrix(-0.50698913,0.86195245,0.86195243,0.50698917,0,0)"
         ry="0.72002876"
         rx="9.1692181"
         cy="195.46207"
         cx="274.13876"
         id="path1917-3"
         style="opacity:1;fill:#565656;fill-opacity:1;stroke:none;stroke-width:0.02708444;stroke-miterlimit:4;stroke-dasharray:0.21667552, 0.21667552;stroke-dashoffset:0;stroke-opacity:1" />
      <ellipse
         transform="matrix(-0.50698913,0.86195245,0.86195243,0.50698917,0,0)"
         ry="0.72002876"
         rx="9.169219"
         cy="207.70705"
         cx="274.13876"
         id="path1917-7-3"
         style="display:inline;opacity:1;fill:#fce205;fill-opacity:1;stroke:none;stroke-width:0.02708444;stroke-miterlimit:4;stroke-dasharray:0.21667552, 0.21667552;stroke-dashoffset:0;stroke-opacity:1" />
      <rect
         transform="matrix(0.75585503,-0.65473902,0.33671953,0.94160499,0,0)"
         y="281.54916"
         x="-91.838379"
         height="15.450026"
         width="2.6499479"
         id="rect2031"
         style="opacity:1;fill:#565656;fill-opacity:1;stroke:none;stroke-width:0.05332146;stroke-miterlimit:4;stroke-dasharray:0.42657167, 0.42657167;stroke-dashoffset:0;stroke-opacity:1" />
    </g>
    <g
       id="g2393"
       transform="matrix(0.57758865,0,0,0.57758865,-1.6272953,176.58009)">
      <rect
         y="4.604166"
         x="132.625"
         height="21.192402"
         width="31.75"
         id="rect1915-3-1"
         style="opacity:1;fill:#565656;fill-opacity:1;stroke:none;stroke-width:0.04689227;stroke-miterlimit:4;stroke-dasharray:0.37513812, 0.37513812;stroke-dashoffset:0;stroke-opacity:1" />
      <ellipse
         ry="1.2466117"
         rx="15.874998"
         cy="4.619751"
         cx="148.5"
         id="path1917-8-8"
         style="opacity:1;fill:#565656;fill-opacity:1;stroke:none;stroke-width:0.04689227;stroke-miterlimit:4;stroke-dasharray:0.37513812, 0.37513812;stroke-dashoffset:0;stroke-opacity:1" />
      <ellipse
         ry="1.2466117"
         rx="15.874999"
         cy="25.819941"
         cx="148.5"
         id="path1917-7-8-9"
         style="display:inline;opacity:1;fill:#fce205;fill-opacity:1;stroke:none;stroke-width:0.04689227;stroke-miterlimit:4;stroke-dasharray:0.37513812, 0.37513812;stroke-dashoffset:0;stroke-opacity:1" />
      <rect
         y="-0.68750066"
         x="146.51562"
         height="18.520834"
         width="3.9687481"
         id="rect2031-3"
         style="display:inline;opacity:1;fill:#565656;fill-opacity:1;stroke:none;stroke-width:0.07144565;stroke-miterlimit:4;stroke-dasharray:0.5715652, 0.5715652;stroke-dashoffset:0;stroke-opacity:1" />
    </g>
    <g
       id="g2402"
       transform="matrix(0.57758865,0,0,0.57758865,-1.6272953,176.58009)">
      <rect
         transform="rotate(30.437805)"
         y="-134.74774"
         x="232.77698"
         height="21.192402"
         width="31.75"
         id="rect1915"
         style="opacity:1;fill:#565656;fill-opacity:1;stroke:none;stroke-width:0.04689226;stroke-miterlimit:4;stroke-dasharray:0.37513811, 0.37513811;stroke-dashoffset:0;stroke-opacity:1" />
      <ellipse
         transform="rotate(30.437805)"
         ry="1.2466117"
         rx="15.874997"
         cy="-134.73216"
         cx="248.65198"
         id="path1917"
         style="opacity:1;fill:#565656;fill-opacity:1;stroke:none;stroke-width:0.04689226;stroke-miterlimit:4;stroke-dasharray:0.37513811, 0.37513811;stroke-dashoffset:0;stroke-opacity:1" />
      <ellipse
         transform="rotate(30.437805)"
         ry="1.2466117"
         rx="15.874999"
         cy="-113.53197"
         cx="248.65198"
         id="path1917-7"
         style="display:inline;opacity:1;fill:#fce205;fill-opacity:1;stroke:none;stroke-width:0.04689226;stroke-miterlimit:4;stroke-dasharray:0.37513811, 0.37513811;stroke-dashoffset:0;stroke-opacity:1" />
      <rect
         y="-0.68750131"
         x="281.78125"
         height="18.520834"
         width="3.9687481"
         id="rect2031-8"
         style="display:inline;opacity:1;fill:#565656;fill-opacity:1;stroke:none;stroke-width:0.07144565;stroke-miterlimit:4;stroke-dasharray:0.5715652, 0.5715652;stroke-dashoffset:0;stroke-opacity:1" />
    </g>
  </g>
</svg>
